<svg xmlns="http://www.w3.org/2000/svg" xmlns:xlink="http://www.w3.org/1999/xlink" width="500" zoomAndPan="magnify" viewBox="0 0 375 374.999991" height="500" preserveAspectRatio="xMidYMid meet" version="1.0"><defs><filter x="0%" y="0%" width="100%" height="100%" id="325bcfc8e8"><feColorMatrix values="0 0 0 0 1 0 0 0 0 1 0 0 0 0 1 0 0 0 1 0" color-interpolation-filters="sRGB"/></filter><g/><clipPath id="e8e88e77a0"><path d="M 33.074219 33.175781 L 341.925781 33.175781 L 341.925781 342.027344 L 33.074219 342.027344 Z M 33.074219 33.175781 " clip-rule="nonzero"/></clipPath><clipPath id="862b8c27d2"><path d="M 187.5 33.175781 C 102.214844 33.175781 33.074219 102.316406 33.074219 187.601562 C 33.074219 272.890625 102.214844 342.027344 187.5 342.027344 C 272.785156 342.027344 341.925781 272.890625 341.925781 187.601562 C 341.925781 102.316406 272.785156 33.175781 187.5 33.175781 Z M 187.5 33.175781 " clip-rule="nonzero"/></clipPath><clipPath id="a9faa72f92"><path d="M 39.570312 39.671875 L 335.429688 39.671875 L 335.429688 335.535156 L 39.570312 335.535156 Z M 39.570312 39.671875 " clip-rule="nonzero"/></clipPath><clipPath id="34d252eb7b"><path d="M 187.5 39.671875 C 105.800781 39.671875 39.570312 105.902344 39.570312 187.601562 C 39.570312 269.304688 105.800781 335.535156 187.5 335.535156 C 269.199219 335.535156 335.429688 269.304688 335.429688 187.601562 C 335.429688 105.902344 269.199219 39.671875 187.5 39.671875 Z M 187.5 39.671875 " clip-rule="nonzero"/></clipPath><clipPath id="d87fd7c59e"><path d="M 39.570312 39.671875 L 335.070312 39.671875 L 335.070312 335.171875 L 39.570312 335.171875 Z M 39.570312 39.671875 " clip-rule="nonzero"/></clipPath><clipPath id="4587db50ad"><path d="M 187.320312 39.671875 C 105.71875 39.671875 39.570312 105.820312 39.570312 187.421875 C 39.570312 269.019531 105.71875 335.171875 187.320312 335.171875 C 268.917969 335.171875 335.070312 269.019531 335.070312 187.421875 C 335.070312 105.820312 268.917969 39.671875 187.320312 39.671875 Z M 187.320312 39.671875 " clip-rule="nonzero"/></clipPath><clipPath id="79e95fc8ac"><path d="M 97.300781 97.40625 L 277.699219 97.40625 L 277.699219 277.800781 L 97.300781 277.800781 Z M 97.300781 97.40625 " clip-rule="nonzero"/></clipPath><clipPath id="194091386b"><path d="M 187.5 97.40625 C 137.683594 97.40625 97.300781 137.789062 97.300781 187.601562 C 97.300781 237.417969 137.683594 277.800781 187.5 277.800781 C 237.316406 277.800781 277.699219 237.417969 277.699219 187.601562 C 277.699219 137.789062 237.316406 97.40625 187.5 97.40625 Z M 187.5 97.40625 " clip-rule="nonzero"/></clipPath><clipPath id="39d067cde2"><path d="M 97.300781 97.40625 L 278.050781 97.40625 L 278.050781 278.15625 L 97.300781 278.15625 Z M 97.300781 97.40625 " clip-rule="nonzero"/></clipPath><clipPath id="3f67f0552f"><path d="M 187.675781 97.40625 C 137.765625 97.40625 97.300781 137.867188 97.300781 187.78125 C 97.300781 237.691406 137.765625 278.15625 187.675781 278.15625 C 237.589844 278.15625 278.050781 237.691406 278.050781 187.78125 C 278.050781 137.867188 237.589844 97.40625 187.675781 97.40625 Z M 187.675781 97.40625 " clip-rule="nonzero"/></clipPath><clipPath id="bed9278805"><path d="M 106.878906 107.511719 L 267.59375 107.511719 L 267.59375 268.222656 L 106.878906 268.222656 Z M 106.878906 107.511719 " clip-rule="nonzero"/></clipPath><clipPath id="8759a70c01"><path d="M 187.234375 107.511719 C 142.855469 107.511719 106.878906 143.488281 106.878906 187.867188 C 106.878906 232.246094 142.855469 268.222656 187.234375 268.222656 C 231.613281 268.222656 267.59375 232.246094 267.59375 187.867188 C 267.59375 143.488281 231.613281 107.511719 187.234375 107.511719 Z M 187.234375 107.511719 " clip-rule="nonzero"/></clipPath><mask id="059c7abb5b"><g filter="url(#325bcfc8e8)"><rect x="-37.5" width="450" fill="#000000" y="-37.499999" height="449.999989" fill-opacity="0.6"/></g></mask><clipPath id="6876db6763"><path d="M 0.40625 1.015625 L 160.90625 1.015625 L 160.90625 154.015625 L 0.40625 154.015625 Z M 0.40625 1.015625 " clip-rule="nonzero"/></clipPath><clipPath id="b3bd9aeee3"><rect x="0" width="162" y="0" height="155"/></clipPath><clipPath id="d70b7b93d2"><path d="M 274.457031 169.007812 L 332.683594 169.007812 L 332.683594 209.035156 L 274.457031 209.035156 Z M 274.457031 169.007812 " clip-rule="nonzero"/></clipPath><clipPath id="427f6a42f9"><path d="M 42.316406 169.007812 L 100.542969 169.007812 L 100.542969 209.035156 L 42.316406 209.035156 Z M 42.316406 169.007812 " clip-rule="nonzero"/></clipPath><clipPath id="237a6e931b"><path d="M 116.144531 116.144531 L 258.644531 116.144531 L 258.644531 258.644531 L 116.144531 258.644531 Z M 116.144531 116.144531 " clip-rule="nonzero"/></clipPath><clipPath id="bb863c355e"><path d="M 91 168.253906 L 99 168.253906 L 99 176 L 91 176 Z M 91 168.253906 " clip-rule="nonzero"/></clipPath><clipPath id="b7dd3f9889"><path d="M 78 168.253906 L 86 168.253906 L 86 176 L 78 176 Z M 78 168.253906 " clip-rule="nonzero"/></clipPath><clipPath id="cc469cc8b8"><path d="M 64 168.253906 L 72 168.253906 L 72 176 L 64 176 Z M 64 168.253906 " clip-rule="nonzero"/></clipPath><clipPath id="93f3be7d84"><path d="M 51 168.253906 L 58 168.253906 L 58 176 L 51 176 Z M 51 168.253906 " clip-rule="nonzero"/></clipPath><clipPath id="5ff3195328"><path d="M 37 168.253906 L 45 168.253906 L 45 176 L 37 176 Z M 37 168.253906 " clip-rule="nonzero"/></clipPath><clipPath id="e15b43d199"><path d="M 105 168.253906 L 105.9375 168.253906 L 105.9375 176 L 105 176 Z M 105 168.253906 " clip-rule="nonzero"/></clipPath><clipPath id="f5546a9a59"><path d="M 105 195 L 105.9375 195 L 105.9375 203 L 105 203 Z M 105 195 " clip-rule="nonzero"/></clipPath><clipPath id="a4afdc2de9"><path d="M 84 202 L 92 202 L 92 209.503906 L 84 209.503906 Z M 84 202 " clip-rule="nonzero"/></clipPath><clipPath id="17a48563f6"><path d="M 71 202 L 79 202 L 79 209.503906 L 71 209.503906 Z M 71 202 " clip-rule="nonzero"/></clipPath><clipPath id="d5b9645e77"><path d="M 57 202 L 65 202 L 65 209.503906 L 57 209.503906 Z M 57 202 " clip-rule="nonzero"/></clipPath><clipPath id="b55e398584"><path d="M 44 202 L 52 202 L 52 209.503906 L 44 209.503906 Z M 44 202 " clip-rule="nonzero"/></clipPath><clipPath id="a0d99be6c0"><path d="M 36.9375 175 L 38 175 L 38 183 L 36.9375 183 Z M 36.9375 175 " clip-rule="nonzero"/></clipPath><clipPath id="531cc473ba"><path d="M 36.9375 202 L 38 202 L 38 209.503906 L 36.9375 209.503906 Z M 36.9375 202 " clip-rule="nonzero"/></clipPath><clipPath id="382e6b4764"><path d="M 98 175 L 105.9375 175 L 105.9375 183 L 98 183 Z M 98 175 " clip-rule="nonzero"/></clipPath><clipPath id="1a3c1c45b1"><path d="M 98 202 L 105.9375 202 L 105.9375 209.503906 L 98 209.503906 Z M 98 202 " clip-rule="nonzero"/></clipPath><clipPath id="abdf5cd654"><path d="M 105 182 L 105.9375 182 L 105.9375 190 L 105 190 Z M 105 182 " clip-rule="nonzero"/></clipPath><clipPath id="c2ffc63c67"><path d="M 36.9375 189 L 38 189 L 38 197 L 36.9375 197 Z M 36.9375 189 " clip-rule="nonzero"/></clipPath><clipPath id="45a4d4874b"><path d="M 98 189 L 105.9375 189 L 105.9375 197 L 98 197 Z M 98 189 " clip-rule="nonzero"/></clipPath><clipPath id="eac5ee9545"><path d="M 275 168.253906 L 283 168.253906 L 283 176 L 275 176 Z M 275 168.253906 " clip-rule="nonzero"/></clipPath><clipPath id="0a191c4842"><path d="M 289 168.253906 L 297 168.253906 L 297 176 L 289 176 Z M 289 168.253906 " clip-rule="nonzero"/></clipPath><clipPath id="7cab00f541"><path d="M 302 168.253906 L 310 168.253906 L 310 176 L 302 176 Z M 302 168.253906 " clip-rule="nonzero"/></clipPath><clipPath id="9db2c87886"><path d="M 316 168.253906 L 324 168.253906 L 324 176 L 316 176 Z M 316 168.253906 " clip-rule="nonzero"/></clipPath><clipPath id="64a0414e79"><path d="M 329 168.253906 L 337 168.253906 L 337 176 L 329 176 Z M 329 168.253906 " clip-rule="nonzero"/></clipPath><clipPath id="a69578dab6"><path d="M 268.027344 168.253906 L 269 168.253906 L 269 176 L 268.027344 176 Z M 268.027344 168.253906 " clip-rule="nonzero"/></clipPath><clipPath id="a2226944cb"><path d="M 268.027344 195 L 269 195 L 269 203 L 268.027344 203 Z M 268.027344 195 " clip-rule="nonzero"/></clipPath><clipPath id="8361ffaaca"><path d="M 282 202 L 290 202 L 290 209.503906 L 282 209.503906 Z M 282 202 " clip-rule="nonzero"/></clipPath><clipPath id="4debe62ce7"><path d="M 296 202 L 303 202 L 303 209.503906 L 296 209.503906 Z M 296 202 " clip-rule="nonzero"/></clipPath><clipPath id="0df7a40cbc"><path d="M 309 202 L 317 202 L 317 209.503906 L 309 209.503906 Z M 309 202 " clip-rule="nonzero"/></clipPath><clipPath id="b04e715e5b"><path d="M 323 202 L 330 202 L 330 209.503906 L 323 209.503906 Z M 323 202 " clip-rule="nonzero"/></clipPath><clipPath id="9b764cc3aa"><path d="M 336 175 L 337.027344 175 L 337.027344 183 L 336 183 Z M 336 175 " clip-rule="nonzero"/></clipPath><clipPath id="76b2435384"><path d="M 336 202 L 337.027344 202 L 337.027344 209.503906 L 336 209.503906 Z M 336 202 " clip-rule="nonzero"/></clipPath><clipPath id="0397999ce9"><path d="M 268.027344 175 L 276 175 L 276 183 L 268.027344 183 Z M 268.027344 175 " clip-rule="nonzero"/></clipPath><clipPath id="acecaf8d69"><path d="M 268.027344 202 L 276 202 L 276 209.503906 L 268.027344 209.503906 Z M 268.027344 202 " clip-rule="nonzero"/></clipPath><clipPath id="118dec4c0e"><path d="M 268.027344 182 L 269 182 L 269 190 L 268.027344 190 Z M 268.027344 182 " clip-rule="nonzero"/></clipPath><clipPath id="3083766965"><path d="M 336 189 L 337.027344 189 L 337.027344 197 L 336 197 Z M 336 189 " clip-rule="nonzero"/></clipPath><clipPath id="d16c461ba9"><path d="M 268.027344 189 L 276 189 L 276 197 L 268.027344 197 Z M 268.027344 189 " clip-rule="nonzero"/></clipPath><clipPath id="32cd226149"><path d="M 285 244 L 289 244 L 289 249 L 285 249 Z M 285 244 " clip-rule="nonzero"/></clipPath><clipPath id="8edc968aab"><path d="M 274.859375 222.804688 L 306.269531 215.496094 L 313.582031 246.90625 L 282.171875 254.214844 Z M 274.859375 222.804688 " clip-rule="nonzero"/></clipPath><clipPath id="3a72eedd55"><path d="M 274.859375 222.804688 L 306.269531 215.496094 L 313.582031 246.90625 L 282.171875 254.214844 Z M 274.859375 222.804688 " clip-rule="nonzero"/></clipPath><clipPath id="2afb1aa6da"><path d="M 281 217 L 309 217 L 309 253 L 281 253 Z M 281 217 " clip-rule="nonzero"/></clipPath><clipPath id="fc28845cc3"><path d="M 274.859375 222.804688 L 306.269531 215.496094 L 313.582031 246.90625 L 282.171875 254.214844 Z M 274.859375 222.804688 " clip-rule="nonzero"/></clipPath><clipPath id="4af2ae9d98"><path d="M 274.859375 222.804688 L 306.269531 215.496094 L 313.582031 246.90625 L 282.171875 254.214844 Z M 274.859375 222.804688 " clip-rule="nonzero"/></clipPath><clipPath id="9e139953a2"><path d="M 290 231 L 297 231 L 297 242 L 290 242 Z M 290 231 " clip-rule="nonzero"/></clipPath><clipPath id="30ebe87d0e"><path d="M 274.859375 222.804688 L 306.269531 215.496094 L 313.582031 246.90625 L 282.171875 254.214844 Z M 274.859375 222.804688 " clip-rule="nonzero"/></clipPath><clipPath id="b171adf2c2"><path d="M 274.859375 222.804688 L 306.269531 215.496094 L 313.582031 246.90625 L 282.171875 254.214844 Z M 274.859375 222.804688 " clip-rule="nonzero"/></clipPath><clipPath id="36c07e1734"><path d="M 86 244 L 90 244 L 90 249 L 86 249 Z M 86 244 " clip-rule="nonzero"/></clipPath><clipPath id="eb979ec682"><path d="M 68.320312 215.445312 L 99.75 222.683594 L 92.511719 254.109375 L 61.085938 246.875 Z M 68.320312 215.445312 " clip-rule="nonzero"/></clipPath><clipPath id="2c2775ccea"><path d="M 100.078125 222.757812 L 68.652344 215.523438 L 61.414062 246.949219 L 92.84375 254.1875 Z M 100.078125 222.757812 " clip-rule="nonzero"/></clipPath><clipPath id="cc3c6b6137"><path d="M 66 217 L 94 217 L 94 253 L 66 253 Z M 66 217 " clip-rule="nonzero"/></clipPath><clipPath id="7db751b478"><path d="M 68.320312 215.445312 L 99.75 222.683594 L 92.511719 254.109375 L 61.085938 246.875 Z M 68.320312 215.445312 " clip-rule="nonzero"/></clipPath><clipPath id="84ad48b7b3"><path d="M 100.078125 222.757812 L 68.652344 215.523438 L 61.414062 246.949219 L 92.84375 254.1875 Z M 100.078125 222.757812 " clip-rule="nonzero"/></clipPath><clipPath id="6332272dcf"><path d="M 78 231 L 85 231 L 85 242 L 78 242 Z M 78 231 " clip-rule="nonzero"/></clipPath><clipPath id="2ef87861ae"><path d="M 68.320312 215.445312 L 99.75 222.683594 L 92.511719 254.109375 L 61.085938 246.875 Z M 68.320312 215.445312 " clip-rule="nonzero"/></clipPath><clipPath id="2d14cf79a7"><path d="M 100.078125 222.757812 L 68.652344 215.523438 L 61.414062 246.949219 L 92.84375 254.1875 Z M 100.078125 222.757812 " clip-rule="nonzero"/></clipPath></defs><g clip-path="url(#e8e88e77a0)"><g clip-path="url(#862b8c27d2)"><path fill="#160036" d="M 33.074219 33.175781 L 341.925781 33.175781 L 341.925781 342.027344 L 33.074219 342.027344 Z M 33.074219 33.175781 " fill-opacity="1" fill-rule="nonzero"/></g></g><g clip-path="url(#a9faa72f92)"><g clip-path="url(#34d252eb7b)"><path fill="#160036" d="M 39.570312 39.671875 L 335.429688 39.671875 L 335.429688 335.535156 L 39.570312 335.535156 Z M 39.570312 39.671875 " fill-opacity="1" fill-rule="nonzero"/></g></g><g clip-path="url(#d87fd7c59e)"><g clip-path="url(#4587db50ad)"><path stroke-linecap="butt" transform="matrix(0.749109, 0, 0, 0.749109, 39.568563, 39.671306)" fill="none" stroke-linejoin="miter" d="M 197.23672 0.000759629 C 88.305188 0.000759629 0.00233595 88.303611 0.00233595 197.235144 C 0.00233595 306.161462 88.305188 394.469528 197.23672 394.469528 C 306.163038 394.469528 394.471104 306.161462 394.471104 197.235144 C 394.471104 88.303611 306.163038 0.000759629 197.23672 0.000759629 Z M 197.23672 0.000759629 " stroke="#e9b140" stroke-width="16" stroke-opacity="1" stroke-miterlimit="4"/></g></g><g fill="#ffffff" fill-opacity="1"><g transform="translate(98.125723, 137.06058)"><g><path d="M -20.550781 -16.832031 C -18.894531 -18.957031 -18.421875 -19.085938 -15.515625 -18.1875 L 7.472656 -9.582031 L 12.171875 -15.609375 L -1.777344 -35.808594 C -3.355469 -38.40625 -3.378906 -38.855469 -1.71875 -40.980469 L -5.121094 -43.632812 L -12.320312 -34.398438 L -8.921875 -31.746094 C -7.867188 -33.097656 -7.300781 -33.589844 -6.605469 -33.046875 C -6.21875 -32.746094 -5.757812 -32.136719 -5.1875 -31.195312 L 4.875 -17.011719 L -11.3125 -23.421875 C -12.363281 -23.746094 -13.027344 -24.011719 -13.414062 -24.3125 C -14.109375 -24.855469 -13.773438 -25.527344 -12.71875 -26.878906 L -16.117188 -29.53125 L -23.953125 -19.484375 Z M -20.550781 -16.832031 "/></g></g></g><g fill="#ffffff" fill-opacity="1"><g transform="translate(120.556992, 110.634245)"><g><path d="M 1.5625 -1.179688 L 10.871094 -8.207031 L 8.273438 -11.648438 C 6.4375 -10.261719 5.957031 -10.328125 4.570312 -12.164062 L -5.644531 -25.695312 C -7.03125 -27.535156 -6.964844 -28.015625 -5.125 -29.402344 L -7.722656 -32.84375 L -17.03125 -25.820312 L -14.433594 -22.378906 C -12.597656 -23.765625 -12.117188 -23.699219 -10.726562 -21.859375 L -0.515625 -8.328125 C 0.871094 -6.488281 0.804688 -6.007812 -1.03125 -4.621094 Z M 1.5625 -1.179688 "/></g></g></g><g fill="#ffffff" fill-opacity="1"><g transform="translate(134.772904, 98.801584)"><g><path d="M -7.882812 -25.4375 C -6.832031 -25.847656 -5.992188 -26.125 -5.347656 -26.21875 L 1.746094 -8.160156 C 2.585938 -6.015625 2.390625 -5.570312 0.25 -4.730469 L 1.824219 -0.714844 L 11.765625 -4.621094 L 10.191406 -8.632812 C 8.046875 -7.792969 7.648438 -8.003906 6.808594 -10.148438 L 1.792969 -22.917969 L 22.894531 -8.988281 L 28.550781 -11.210938 L 19.8125 -33.464844 C 18.96875 -35.609375 19.117188 -36.035156 21.261719 -36.878906 L 19.6875 -40.890625 L 9.746094 -36.988281 L 11.320312 -32.976562 C 13.464844 -33.816406 13.90625 -33.621094 14.75 -31.480469 L 19.65625 -18.980469 L -1.382812 -32.617188 L -9.457031 -29.449219 Z M -7.882812 -25.4375 "/></g></g></g><g fill="#ffffff" fill-opacity="1"><g transform="translate(169.010326, 86.348103)"><g><path d="M -0.546875 -30.878906 L -0.0585938 -20.992188 L 3.90625 -21.191406 C 3.679688 -25.742188 4.007812 -26.101562 8.558594 -26.324219 L 9.195312 -26.355469 L 10.128906 -7.46875 C 10.242188 -5.167969 9.917969 -4.808594 7.617188 -4.695312 L 7.828125 -0.386719 L 19.476562 -0.964844 L 19.265625 -5.269531 C 16.964844 -5.15625 16.605469 -5.480469 16.492188 -7.78125 L 15.554688 -26.671875 L 16.191406 -26.703125 C 20.742188 -26.929688 21.101562 -26.601562 21.328125 -22.050781 L 25.292969 -22.25 L 24.800781 -32.132812 Z M -0.546875 -30.878906 "/></g></g></g><g fill="#ffffff" fill-opacity="1"><g transform="translate(198.733568, 84.906221)"><g><path d="M 15.066406 -27.902344 L 13.9375 -23.738281 C 15.261719 -23.378906 16.339844 -23.039062 17.222656 -22.75 L 6.582031 -5.933594 C 4.796875 -3.472656 4.34375 -3.292969 1.742188 -3.996094 L 0.613281 0.167969 L 11.917969 3.226562 L 13.046875 -0.933594 C 11.390625 -1.382812 10.71875 -1.71875 10.949219 -2.570312 C 11.078125 -3.042969 11.457031 -3.699219 12.105469 -4.589844 L 13.613281 -6.972656 L 21.605469 -4.808594 L 21.648438 -1.957031 C 21.757812 -0.863281 21.765625 -0.148438 21.636719 0.324219 C 21.40625 1.175781 20.660156 1.125 19.003906 0.679688 L 17.878906 4.839844 L 30.175781 8.167969 L 31.300781 4.007812 C 28.699219 3.300781 28.445312 2.929688 28.148438 -0.09375 L 27.125 -24.636719 Z M 21.171875 -19.140625 C 21.265625 -18.558594 21.324219 -17.832031 21.34375 -16.964844 L 21.484375 -8.855469 L 15.761719 -10.402344 Z M 21.171875 -19.140625 "/></g></g></g><g fill="#ffffff" fill-opacity="1"><g transform="translate(231.441658, 94.246431)"><g><path d="M 9.921875 -11.925781 C 3.898438 -2.984375 5.402344 4.167969 14.101562 10.023438 C 19.183594 13.445312 23.542969 14.078125 25.839844 13.734375 L 33.992188 1.621094 L 23.261719 -5.601562 L 20.554688 -1.578125 L 25.960938 2.0625 L 21.882812 8.117188 C 20.578125 7.949219 18.800781 7.34375 16.730469 5.945312 C 11.609375 2.5 11.003906 -2.042969 15.246094 -8.34375 C 19.484375 -14.644531 23.960938 -15.765625 29.082031 -12.316406 C 32.824219 -9.800781 34.074219 -7.183594 32.675781 -4.226562 L 36.292969 -1.792969 L 39.960938 -7.238281 C 39.289062 -9.402344 36.710938 -13.027344 31.792969 -16.339844 C 23.09375 -22.195312 15.941406 -20.871094 9.921875 -11.925781 Z M 9.921875 -11.925781 "/></g></g></g><g fill="#ffffff" fill-opacity="1"><g transform="translate(258.486329, 112.908404)"><g><path d="M 42.183594 4.199219 L 31.1875 -10.089844 L 28.945312 -13.003906 L 25.6875 -17.234375 L 22.269531 -14.605469 C 23.675781 -12.78125 23.613281 -12.300781 21.789062 -10.894531 L 8.351562 -0.554688 C 6.527344 0.851562 6.046875 0.785156 4.640625 -1.039062 L 1.226562 1.59375 L 4.484375 5.824219 L 6.722656 8.738281 L 17.722656 23.023438 L 25.332031 17.167969 L 22.703125 13.75 C 19.207031 16.441406 18.695312 16.339844 15.917969 12.726562 L 10.566406 5.777344 L 17.050781 0.785156 L 23.417969 9.058594 L 27.222656 6.128906 L 20.859375 -2.140625 L 27.34375 -7.132812 L 32.691406 -0.183594 C 35.46875 3.429688 35.4375 3.949219 31.945312 6.636719 L 34.574219 10.054688 Z M 42.183594 4.199219 "/></g></g></g><g clip-path="url(#79e95fc8ac)"><g clip-path="url(#194091386b)"><path fill="#160036" d="M 97.300781 97.40625 L 277.699219 97.40625 L 277.699219 277.800781 L 97.300781 277.800781 Z M 97.300781 97.40625 " fill-opacity="1" fill-rule="nonzero"/></g></g><g clip-path="url(#39d067cde2)"><g clip-path="url(#3f67f0552f)"><path stroke-linecap="butt" transform="matrix(0.75151, 0, 0, 0.75151, 97.3022, 97.404939)" fill="none" stroke-linejoin="miter" d="M 120.255931 0.00174422 C 53.842802 0.00174422 -0.00188748 53.841236 -0.00188748 120.259563 C -0.00188748 186.672691 53.842802 240.517381 120.255931 240.517381 C 186.674257 240.517381 240.513749 186.672691 240.513749 120.259563 C 240.513749 53.841236 186.674257 0.00174422 120.255931 0.00174422 Z M 120.255931 0.00174422 " stroke="#e9b140" stroke-width="12" stroke-opacity="1" stroke-miterlimit="4"/></g></g><g clip-path="url(#bed9278805)"><g clip-path="url(#8759a70c01)"><path fill="#ffffff" d="M 106.878906 107.511719 L 267.59375 107.511719 L 267.59375 268.222656 L 106.878906 268.222656 Z M 106.878906 107.511719 " fill-opacity="1" fill-rule="nonzero"/></g></g><g fill="#ffffff" fill-opacity="1"><g transform="translate(86.952919, 268.497366)"><g><path d="M 12.023438 -9.296875 C 4.363281 -2.023438 4.28125 5.136719 11.351562 12.585938 C 15.480469 16.9375 19.515625 18.46875 21.789062 18.628906 L 32.160156 8.785156 L 23.4375 -0.40625 L 19.992188 2.863281 L 24.386719 7.492188 L 19.199219 12.417969 C 17.988281 11.980469 16.417969 11.019531 14.730469 9.246094 C 10.570312 4.859375 10.957031 0.386719 16.351562 -4.734375 C 21.75 -9.855469 26.269531 -9.976562 30.429688 -5.589844 C 33.472656 -2.386719 34.113281 0.378906 32.144531 2.910156 L 35.085938 6.007812 L 39.75 1.578125 C 39.570312 -0.632812 37.875 -4.648438 33.878906 -8.859375 C 26.804688 -16.3125 19.683594 -16.566406 12.023438 -9.296875 Z M 12.023438 -9.296875 "/></g></g></g><g fill="#ffffff" fill-opacity="1"><g transform="translate(115.268463, 296.198617)"><g><path d="M 20.496094 -23.339844 L 18.511719 -19.613281 C 19.695312 -18.980469 20.648438 -18.417969 21.429688 -17.949219 L 7.582031 -4.222656 C 5.34375 -2.265625 4.867188 -2.191406 2.539062 -3.433594 L 0.550781 0.292969 L 10.671875 5.691406 L 12.660156 1.964844 C 11.179688 1.175781 10.609375 0.707031 11.015625 -0.0546875 C 11.242188 -0.476562 11.75 -1.023438 12.566406 -1.730469 L 14.527344 -3.675781 L 21.683594 0.140625 L 21.097656 2.871094 C 20.960938 3.941406 20.816406 4.625 20.589844 5.050781 C 20.183594 5.8125 19.480469 5.601562 17.996094 4.808594 L 16.011719 8.539062 L 27.023438 14.410156 L 29.007812 10.683594 C 26.679688 9.441406 26.519531 9.027344 26.898438 6.074219 L 31.296875 -17.582031 Z M 24.410156 -13.640625 C 24.371094 -13.058594 24.265625 -12.355469 24.09375 -11.523438 L 22.453125 -3.75 L 17.328125 -6.480469 Z M 24.410156 -13.640625 "/></g></g></g><g fill="#ffffff" fill-opacity="1"><g transform="translate(152.104178, 314.100263)"><g><path d="M 31.832031 0.929688 C 28.703125 0.433594 28.226562 0.0664062 27.820312 -1.941406 L 26.488281 -6.722656 C 26.242188 -7.929688 25.824219 -8.96875 25.1875 -9.847656 C 28.773438 -10.394531 30.824219 -12.59375 31.496094 -16.8125 C 32.421875 -22.644531 29.683594 -25.898438 22.953125 -26.96875 L 15.414062 -28.167969 L 13.519531 -28.46875 L 6.691406 -29.554688 L 6.03125 -25.382812 C 8.257812 -25.03125 8.535156 -24.644531 8.183594 -22.417969 L 5.574219 -6.015625 C 5.21875 -3.789062 4.835938 -3.507812 2.605469 -3.863281 L 1.945312 0.308594 L 13.226562 2.101562 L 13.890625 -2.070312 C 11.660156 -2.421875 11.382812 -2.808594 11.738281 -5.035156 L 12.566406 -10.25 L 16.214844 -9.667969 C 18.777344 -9.261719 19.777344 -8.226562 20.21875 -6.410156 L 21.707031 -0.191406 C 22.203125 2.800781 23.730469 4.210938 27.140625 4.753906 C 29.703125 5.160156 31.191406 4.960938 31.191406 4.960938 Z M 14.675781 -23.523438 L 20.980469 -22.519531 C 24.394531 -21.976562 25.691406 -20.363281 25.226562 -17.421875 C 24.75 -14.4375 23.023438 -13.351562 19.609375 -13.894531 L 13.304688 -14.894531 Z M 14.675781 -23.523438 "/></g></g></g><g fill="#ffffff" fill-opacity="1"><g transform="translate(193.947469, 318.999828)"><g><path d="M 1.746094 -31.015625 L 2.480469 -26.855469 C 3.804688 -27.085938 4.898438 -27.230469 5.804688 -27.34375 L 3.367188 -8 C 2.808594 -5.078125 2.480469 -4.726562 -0.117188 -4.269531 L 0.613281 -0.109375 L 11.914062 -2.101562 L 11.179688 -6.261719 C 9.523438 -5.96875 8.789062 -5.984375 8.640625 -6.835938 C 8.558594 -7.308594 8.621094 -8.050781 8.824219 -9.109375 L 9.167969 -11.851562 L 17.160156 -13.261719 L 18.382812 -10.746094 C 18.933594 -9.820312 19.242188 -9.191406 19.324219 -8.71875 C 19.472656 -7.867188 18.789062 -7.601562 17.136719 -7.308594 L 17.867188 -3.148438 L 30.160156 -5.316406 L 29.425781 -9.476562 C 26.824219 -9.019531 26.445312 -9.242188 24.921875 -11.800781 L 13.800781 -33.140625 Z M 10.808594 -25.789062 C 11.136719 -25.308594 11.488281 -24.6875 11.867188 -23.925781 L 15.367188 -16.792969 L 9.644531 -15.785156 Z M 10.808594 -25.789062 "/></g></g></g><g fill="#ffffff" fill-opacity="1"><g transform="translate(233.79652, 310.2943)"><g><path d="M -5.84375 -14.027344 C -0.820312 -4.742188 6.074219 -2.796875 15.105469 -7.683594 C 20.382812 -10.539062 22.914062 -14.039062 23.660156 -16.1875 L 16.851562 -28.769531 L 5.707031 -22.738281 L 7.96875 -18.558594 L 13.582031 -21.597656 L 16.988281 -15.304688 C 16.246094 -14.25 14.914062 -12.984375 12.761719 -11.816406 C 7.441406 -8.941406 3.226562 -10.476562 -0.316406 -17.019531 C -3.855469 -23.566406 -2.796875 -27.960938 2.523438 -30.835938 C 6.40625 -32.941406 9.246094 -32.839844 11.175781 -30.28125 L 14.929688 -32.3125 L 11.871094 -37.96875 C 9.6875 -38.371094 5.367188 -37.78125 0.261719 -35.015625 C -8.773438 -30.128906 -10.871094 -23.316406 -5.84375 -14.027344 Z M -5.84375 -14.027344 "/></g></g></g><g fill="#ffffff" fill-opacity="1"><g transform="translate(267.804382, 290.154103)"><g><path d="M -2.355469 -41.460938 L -14.511719 -28.644531 L -16.988281 -26.035156 L -20.585938 -22.238281 L -17.523438 -19.332031 C -15.96875 -20.96875 -15.496094 -20.980469 -13.859375 -19.425781 L -1.808594 -8 C -0.171875 -6.445312 -0.160156 -5.972656 -1.710938 -4.335938 L 1.355469 -1.429688 L 4.953125 -5.222656 L 7.433594 -7.835938 L 19.585938 -20.652344 L 12.761719 -27.128906 L 9.855469 -24.0625 C 12.988281 -21.089844 12.96875 -20.578125 9.894531 -17.339844 L 3.984375 -11.105469 L -1.832031 -16.621094 L 5.203125 -24.039062 L 1.789062 -27.277344 L -5.246094 -19.859375 L -11.0625 -25.375 L -5.148438 -31.609375 C -2.078125 -34.847656 -1.570312 -34.894531 1.566406 -31.921875 L 4.472656 -34.988281 Z M -2.355469 -41.460938 "/></g></g></g><g mask="url(#059c7abb5b)"><g transform="matrix(1, 0, 0, 1, 107, 110)"><g clip-path="url(#b3bd9aeee3)"><g clip-path="url(#6876db6763)"><path fill="#cb9623" d="M 94.59375 144.117188 C 94.757812 144.152344 94.925781 144.113281 95.046875 144 C 95.882812 143.199219 94.6875 139.203125 92.039062 130.226562 C 92.039062 130.226562 90.066406 123.535156 88.230469 117.238281 C 87.261719 113.921875 86.496094 111.203125 85.992188 109.429688 C 86.398438 111.226562 87.03125 113.980469 87.761719 117.355469 C 88.261719 119.65625 89.0625 123.289062 90.628906 130.578125 C 92.625 139.71875 93.46875 143.804688 94.585938 144.117188 Z M 127.953125 129.566406 C 128.125 129.523438 128.257812 129.390625 128.300781 129.222656 C 128.625 128.113281 125.566406 125.25 118.757812 118.792969 C 118.757812 118.792969 113.683594 113.976562 108.925781 109.433594 C 106.421875 107.039062 104.382812 105.070312 103.058594 103.785156 C 104.3125 105.136719 106.242188 107.214844 108.578125 109.765625 C 110.175781 111.492188 112.695312 114.253906 117.722656 119.777344 C 124.019531 126.734375 126.820312 129.84375 127.953125 129.566406 Z M 146.976562 96.929688 C 147.097656 96.808594 147.148438 96.636719 147.109375 96.472656 C 146.828125 95.351562 142.742188 94.398438 133.601562 92.175781 C 133.601562 92.175781 126.78125 90.527344 120.371094 88.957031 C 117 88.128906 114.242188 87.433594 112.445312 86.980469 C 114.21875 87.523438 116.929688 88.359375 120.238281 89.417969 C 122.496094 90.136719 126.070312 91.265625 133.203125 93.5625 C 142.15625 96.449219 146.148438 97.75 146.976562 96.945312 Z M 13.460938 94.96875 C 13.417969 95.132812 13.460938 95.308594 13.578125 95.433594 C 14.386719 96.261719 18.429688 95.085938 27.433594 92.4375 C 27.433594 92.4375 34.171875 90.476562 40.515625 88.640625 C 43.855469 87.683594 46.589844 86.914062 48.375 86.417969 C 46.566406 86.824219 43.792969 87.453125 40.40625 88.179688 C 38.089844 88.679688 34.425781 89.472656 27.09375 91.035156 C 17.886719 93.019531 13.773438 93.875 13.460938 94.96875 Z M 31.5625 128.117188 C 31.605469 128.285156 31.738281 128.417969 31.90625 128.460938 C 33.019531 128.78125 35.910156 125.746094 42.414062 118.980469 C 42.414062 118.980469 47.261719 113.941406 51.839844 109.210938 C 54.261719 106.722656 56.230469 104.699219 57.53125 103.378906 C 56.164062 104.628906 54.066406 106.542969 51.503906 108.867188 C 49.75 110.453125 46.976562 112.960938 41.410156 117.953125 C 34.40625 124.234375 31.273438 127.015625 31.5625 128.117188 Z M 64.390625 143.589844 C 64.511719 143.710938 64.6875 143.757812 64.851562 143.71875 C 65.976562 143.441406 66.953125 139.382812 69.179688 130.292969 C 69.179688 130.292969 70.839844 123.519531 72.425781 117.152344 C 73.257812 113.800781 73.957031 111.0625 74.417969 109.277344 C 73.867188 111.039062 73.03125 113.730469 71.960938 117.023438 C 71.242188 119.265625 70.101562 122.8125 67.804688 129.898438 C 64.878906 138.796875 63.566406 142.765625 64.378906 143.589844 Z M 117.039062 144.765625 C 117.246094 144.761719 117.433594 144.652344 117.539062 144.476562 C 118.230469 143.285156 115.542969 139.054688 109.574219 129.5625 C 109.574219 129.5625 105.109375 122.480469 100.941406 115.808594 C 98.75 112.296875 96.96875 109.410156 95.8125 107.519531 C 96.871094 109.457031 98.488281 112.4375 100.445312 116.085938 C 101.777344 118.578125 103.886719 122.515625 108.066406 130.410156 C 113.324219 140.332031 115.65625 144.769531 117.039062 144.765625 Z M 146.464844 115.964844 C 146.640625 115.863281 146.75 115.671875 146.75 115.46875 C 146.75 114.089844 142.308594 111.769531 132.367188 106.527344 C 132.367188 106.527344 124.957031 102.617188 117.992188 98.929688 C 114.332031 96.984375 111.34375 95.371094 109.398438 94.316406 C 111.289062 95.46875 114.183594 97.242188 117.710938 99.425781 C 120.117188 100.917969 123.917969 103.28125 131.503906 108.027344 C 141.027344 113.976562 145.273438 116.660156 146.464844 115.964844 Z M 14.625 115.515625 C 14.628906 115.71875 14.734375 115.90625 14.910156 116.011719 C 16.105469 116.703125 20.347656 114.027344 29.871094 108.070312 C 29.871094 108.070312 36.972656 103.625 43.667969 99.46875 C 47.195312 97.28125 50.085938 95.507812 51.980469 94.355469 C 50.035156 95.410156 47.046875 97.023438 43.382812 98.972656 C 40.886719 100.300781 36.9375 102.402344 29.015625 106.566406 C 19.066406 111.816406 14.617188 114.132812 14.625 115.515625 Z M 43.859375 144.5 C 43.964844 144.675781 44.152344 144.785156 44.355469 144.789062 C 45.742188 144.789062 48.066406 140.359375 53.324219 130.449219 C 53.324219 130.449219 57.246094 123.058594 60.945312 116.121094 C 62.898438 112.472656 64.515625 109.492188 65.574219 107.554688 C 64.417969 109.4375 62.640625 112.324219 60.445312 115.84375 C 58.949219 118.234375 56.585938 122.03125 51.820312 129.589844 C 45.863281 139.085938 43.164062 143.308594 43.859375 144.5 Z M 80.414062 153.945312 C 80.59375 154.042969 80.808594 154.042969 80.988281 153.945312 C 82.191406 153.253906 81.980469 148.257812 81.5625 137.054688 C 81.5625 137.054688 81.253906 128.703125 80.988281 120.84375 C 80.851562 116.699219 80.757812 113.324219 80.703125 111.117188 C 80.648438 113.324219 80.554688 116.707031 80.414062 120.84375 C 80.316406 123.660156 80.171875 128.125 79.839844 137.050781 C 79.421875 148.253906 79.210938 153.257812 80.414062 153.945312 Z M 94.585938 10.957031 C 94.746094 10.910156 94.921875 10.953125 95.046875 11.0625 C 95.882812 11.859375 94.6875 15.863281 92.039062 24.835938 C 92.039062 24.835938 90.066406 31.523438 88.230469 37.828125 C 87.261719 41.140625 86.496094 43.859375 85.992188 45.628906 C 86.398438 43.835938 87.03125 41.078125 87.761719 37.710938 C 88.261719 35.410156 89.0625 31.769531 90.628906 24.488281 C 92.625 15.351562 93.46875 11.261719 94.585938 10.957031 Z M 127.953125 25.5 C 128.125 25.542969 128.257812 25.675781 128.300781 25.84375 C 128.625 26.949219 125.566406 29.820312 118.757812 36.277344 C 118.757812 36.277344 113.683594 41.089844 108.925781 45.632812 C 106.421875 48.027344 104.382812 49.996094 103.058594 51.28125 C 104.3125 49.929688 106.242188 47.855469 108.578125 45.300781 C 110.175781 43.574219 112.695312 40.808594 117.722656 35.285156 C 124.019531 28.328125 126.820312 25.21875 127.953125 25.5 Z M 146.976562 58.132812 C 147.097656 58.253906 147.148438 58.425781 147.109375 58.59375 C 146.828125 59.707031 142.742188 60.664062 133.601562 62.886719 C 133.601562 62.886719 126.78125 64.53125 120.371094 66.101562 C 117 66.929688 114.242188 67.625 112.445312 68.082031 C 114.21875 67.535156 116.929688 66.699219 120.238281 65.644531 C 122.496094 64.929688 126.070312 63.796875 133.203125 61.5 C 142.15625 58.621094 146.148438 57.332031 146.976562 58.125 Z M 13.460938 60.09375 C 13.414062 59.929688 13.460938 59.753906 13.578125 59.628906 C 14.386719 58.800781 18.429688 59.996094 27.433594 62.625 C 27.433594 62.625 34.171875 64.585938 40.515625 66.40625 C 43.855469 67.367188 46.589844 68.132812 48.375 68.632812 C 46.566406 68.222656 43.792969 67.59375 40.40625 66.871094 C 38.089844 66.367188 34.425781 65.574219 27.09375 64.015625 C 17.886719 62.046875 13.773438 61.195312 13.460938 60.09375 Z M 31.5625 26.945312 C 31.605469 26.777344 31.738281 26.644531 31.90625 26.601562 C 33.019531 26.285156 35.910156 29.316406 42.414062 36.078125 C 42.414062 36.078125 47.261719 41.125 51.839844 45.851562 C 54.261719 48.339844 56.230469 50.363281 57.53125 51.679688 C 56.164062 50.429688 54.066406 48.515625 51.503906 46.195312 C 49.75 44.613281 46.976562 42.105469 41.410156 37.113281 C 34.40625 30.835938 31.273438 28.050781 31.5625 26.945312 Z M 64.390625 11.480469 C 64.511719 11.359375 64.6875 11.3125 64.851562 11.351562 C 65.976562 11.628906 66.953125 15.691406 69.179688 24.773438 C 69.179688 24.773438 70.839844 31.550781 72.425781 37.914062 C 73.257812 41.269531 73.957031 44.003906 74.417969 45.789062 C 73.867188 44.03125 73.03125 41.335938 71.960938 38.046875 C 71.242188 35.804688 70.101562 32.257812 67.804688 25.171875 C 64.878906 16.269531 63.566406 12.300781 64.378906 11.480469 Z M 117.039062 10.308594 C 117.246094 10.308594 117.433594 10.417969 117.539062 10.59375 C 118.230469 11.785156 115.542969 16.011719 109.574219 25.507812 C 109.574219 25.507812 105.109375 32.585938 100.941406 39.257812 C 98.75 42.773438 96.96875 45.65625 95.8125 47.546875 C 96.871094 45.605469 98.488281 42.628906 100.445312 38.976562 C 101.777344 36.488281 103.886719 32.550781 108.066406 24.652344 C 113.324219 14.738281 115.65625 10.300781 117.039062 10.308594 Z M 146.464844 39.105469 C 146.640625 39.210938 146.75 39.398438 146.75 39.601562 C 146.75 40.984375 142.308594 43.300781 132.367188 48.539062 C 132.367188 48.539062 124.957031 52.449219 117.992188 56.136719 C 114.332031 58.085938 111.34375 59.699219 109.398438 60.753906 C 111.289062 59.601562 114.183594 57.828125 117.710938 55.640625 C 120.117188 54.148438 123.917969 51.789062 131.503906 47.042969 C 141.027344 41.101562 145.273438 38.410156 146.464844 39.105469 Z M 160.785156 77.273438 C 160.882812 77.449219 160.882812 77.667969 160.785156 77.847656 C 160.089844 79.046875 155.078125 78.832031 143.839844 78.417969 C 143.839844 78.417969 135.460938 78.109375 127.578125 77.847656 C 123.417969 77.707031 120.03125 77.617188 117.820312 77.558594 C 120.03125 77.503906 123.429688 77.410156 127.578125 77.273438 C 130.40625 77.175781 134.886719 77.03125 143.835938 76.699219 C 155.078125 76.28125 160.09375 76.074219 160.785156 77.273438 Z M 0.566406 77.789062 C 0.464844 77.613281 0.464844 77.394531 0.566406 77.21875 C 1.257812 76.019531 6.269531 76.230469 17.507812 76.644531 C 17.507812 76.644531 25.886719 76.957031 33.789062 77.21875 C 37.945312 77.355469 41.332031 77.449219 43.546875 77.503906 C 41.332031 77.558594 37.9375 77.652344 33.789062 77.789062 C 30.960938 77.886719 26.480469 78.03125 17.53125 78.363281 C 6.269531 78.78125 1.253906 78.988281 0.566406 77.789062 Z M 14.625 39.570312 C 14.628906 39.367188 14.734375 39.179688 14.910156 39.074219 C 16.105469 38.382812 20.347656 41.0625 29.871094 47.015625 C 29.871094 47.015625 36.972656 51.460938 43.667969 55.617188 C 47.195312 57.804688 50.085938 59.582031 51.980469 60.730469 C 50.035156 59.695312 47.046875 58.0625 43.382812 56.113281 C 40.886719 54.789062 36.9375 52.679688 29.015625 48.515625 C 19.066406 43.253906 14.617188 40.933594 14.625 39.554688 Z M 43.859375 10.566406 C 43.964844 10.390625 44.152344 10.28125 44.355469 10.277344 C 45.742188 10.277344 48.066406 14.710938 53.324219 24.621094 C 53.324219 24.621094 57.246094 32.007812 60.945312 38.949219 C 62.898438 42.597656 64.515625 45.574219 65.574219 47.515625 C 64.417969 45.628906 62.640625 42.746094 60.445312 39.226562 C 58.949219 36.832031 56.585938 33.042969 51.820312 25.480469 C 45.863281 15.988281 43.164062 11.753906 43.859375 10.566406 Z M 80.414062 1.125 C 80.59375 1.023438 80.8125 1.023438 80.988281 1.125 C 82.191406 1.816406 81.980469 6.8125 81.5625 18.015625 C 81.5625 18.015625 81.253906 26.371094 80.988281 34.246094 C 80.851562 38.390625 80.757812 41.765625 80.703125 43.972656 C 80.648438 41.765625 80.554688 38.378906 80.414062 34.246094 C 80.316406 31.425781 80.171875 26.960938 79.839844 18.039062 C 79.421875 6.8125 79.210938 1.8125 80.414062 1.125 " fill-opacity="1" fill-rule="nonzero"/></g></g></g></g><g clip-path="url(#d70b7b93d2)"><path fill="#ffffff" d="M 274.457031 169.007812 L 332.683594 169.007812 L 332.683594 209.035156 L 274.457031 209.035156 Z M 274.457031 169.007812 " fill-opacity="1" fill-rule="nonzero"/></g><g clip-path="url(#427f6a42f9)"><path fill="#ffffff" d="M 42.316406 169.007812 L 100.542969 169.007812 L 100.542969 209.035156 L 42.316406 209.035156 Z M 42.316406 169.007812 " fill-opacity="1" fill-rule="nonzero"/></g><g clip-path="url(#237a6e931b)"><path fill="#160036" d="M 187.394531 116.144531 C 148.109375 116.144531 116.144531 148.105469 116.144531 187.394531 C 116.144531 226.683594 148.109375 258.644531 187.394531 258.644531 C 226.683594 258.644531 258.644531 226.683594 258.644531 187.394531 C 258.644531 148.105469 226.683594 116.144531 187.394531 116.144531 Z M 219.253906 213.179688 C 219.078125 213.457031 218.890625 213.730469 218.707031 214.003906 C 218.613281 214.144531 218.515625 214.28125 218.414062 214.417969 C 218.097656 214.871094 217.769531 215.320312 217.433594 215.757812 C 217.335938 215.886719 217.238281 216.015625 217.144531 216.140625 C 216.945312 216.394531 216.742188 216.648438 216.539062 216.894531 C 216.425781 217.03125 216.3125 217.164062 216.199219 217.296875 C 215.859375 217.695312 215.511719 218.085938 215.160156 218.472656 C 215.027344 218.617188 214.894531 218.761719 214.761719 218.902344 C 214.550781 219.121094 214.339844 219.34375 214.125 219.558594 C 213.910156 219.769531 213.679688 219.992188 213.457031 220.210938 C 213.183594 220.472656 212.910156 220.726562 212.636719 220.976562 C 212.460938 221.132812 212.285156 221.289062 212.109375 221.445312 C 211.835938 221.683594 211.558594 221.921875 211.277344 222.152344 C 211.019531 222.363281 210.765625 222.574219 210.503906 222.777344 C 210.296875 222.9375 210.089844 223.097656 209.882812 223.253906 C 209.640625 223.433594 209.394531 223.609375 209.148438 223.785156 C 208.878906 223.980469 208.605469 224.171875 208.328125 224.355469 C 208.054688 224.542969 207.777344 224.722656 207.5 224.902344 C 207.308594 225.023438 207.113281 225.148438 206.917969 225.265625 C 206.527344 225.507812 206.128906 225.742188 205.726562 225.96875 C 205.5625 226.0625 205.394531 226.152344 205.226562 226.242188 C 204.910156 226.414062 204.589844 226.585938 204.265625 226.75 C 204.097656 226.835938 203.933594 226.921875 203.765625 227.003906 C 203.328125 227.21875 202.886719 227.425781 202.4375 227.621094 C 202.277344 227.695312 202.113281 227.761719 201.953125 227.828125 C 201.558594 227.996094 201.164062 228.15625 200.761719 228.3125 C 200.652344 228.355469 200.542969 228.398438 200.433594 228.441406 C 199.949219 228.621094 199.457031 228.789062 198.964844 228.949219 C 198.8125 229 198.664062 229.046875 198.511719 229.09375 C 198.007812 229.253906 197.5 229.402344 196.984375 229.542969 C 196.90625 229.5625 196.824219 229.582031 196.742188 229.601562 C 196.269531 229.722656 195.796875 229.835938 195.320312 229.9375 C 195.1875 229.96875 195.058594 229.996094 194.925781 230.023438 C 194.394531 230.132812 193.855469 230.234375 193.320312 230.320312 C 193.207031 230.335938 193.09375 230.351562 192.980469 230.371094 C 192.484375 230.445312 191.988281 230.511719 191.488281 230.566406 C 191.398438 230.574219 191.304688 230.585938 191.214844 230.597656 C 190.65625 230.65625 190.09375 230.695312 189.53125 230.726562 C 189.402344 230.734375 189.273438 230.742188 189.144531 230.75 C 188.5625 230.773438 187.980469 230.792969 187.394531 230.792969 C 186.808594 230.792969 186.226562 230.773438 185.648438 230.75 C 185.519531 230.742188 185.390625 230.734375 185.265625 230.726562 C 184.699219 230.695312 184.136719 230.65625 183.578125 230.597656 C 183.488281 230.585938 183.398438 230.574219 183.304688 230.566406 C 182.804688 230.511719 182.308594 230.445312 181.8125 230.371094 C 181.699219 230.351562 181.585938 230.335938 181.476562 230.320312 C 180.9375 230.234375 180.398438 230.132812 179.867188 230.023438 C 179.734375 229.996094 179.605469 229.96875 179.476562 229.941406 C 178.996094 229.835938 178.523438 229.722656 178.050781 229.601562 C 177.972656 229.582031 177.890625 229.5625 177.808594 229.542969 C 177.296875 229.402344 176.789062 229.25 176.28125 229.09375 C 176.132812 229.046875 175.980469 228.996094 175.832031 228.949219 C 175.335938 228.789062 174.847656 228.617188 174.359375 228.441406 C 174.25 228.398438 174.140625 228.351562 174.03125 228.3125 C 173.632812 228.15625 173.234375 227.996094 172.839844 227.828125 C 172.679688 227.757812 172.519531 227.691406 172.359375 227.621094 C 171.914062 227.425781 171.46875 227.21875 171.03125 227.003906 C 170.863281 226.921875 170.695312 226.835938 170.53125 226.75 C 170.207031 226.585938 169.882812 226.417969 169.566406 226.242188 C 169.398438 226.152344 169.234375 226.066406 169.070312 225.972656 C 168.667969 225.746094 168.269531 225.507812 167.875 225.265625 C 167.679688 225.148438 167.488281 225.027344 167.292969 224.902344 C 167.011719 224.722656 166.734375 224.542969 166.460938 224.355469 C 166.1875 224.167969 165.914062 223.980469 165.644531 223.789062 C 165.398438 223.613281 165.152344 223.433594 164.910156 223.253906 C 164.703125 223.097656 164.496094 222.9375 164.292969 222.777344 C 164.027344 222.570312 163.765625 222.359375 163.507812 222.144531 C 163.230469 221.917969 162.957031 221.683594 162.6875 221.445312 C 162.507812 221.292969 162.332031 221.136719 162.15625 220.976562 C 161.882812 220.730469 161.613281 220.476562 161.347656 220.222656 C 161.117188 220.003906 160.890625 219.785156 160.667969 219.558594 C 160.445312 219.328125 160.242188 219.121094 160.03125 218.902344 C 159.898438 218.757812 159.765625 218.617188 159.632812 218.472656 C 159.28125 218.089844 158.933594 217.695312 158.597656 217.296875 C 158.484375 217.164062 158.367188 217.03125 158.257812 216.894531 C 158.050781 216.648438 157.847656 216.394531 157.648438 216.140625 C 157.550781 216.015625 157.453125 215.886719 157.359375 215.761719 C 157.019531 215.320312 156.6875 214.871094 156.371094 214.417969 C 156.273438 214.28125 156.179688 214.144531 156.085938 214.007812 C 153.839844 210.707031 152.128906 207.148438 150.957031 203.332031 C 149.785156 199.515625 149.203125 195.609375 149.207031 191.617188 C 149.207031 190.902344 149.230469 190.1875 149.269531 189.476562 C 150.355469 209.566406 167.039062 225.578125 187.394531 225.578125 C 207.75 225.578125 224.433594 209.566406 225.519531 189.476562 C 225.558594 190.1875 225.578125 190.902344 225.578125 191.617188 C 225.585938 195.441406 225.050781 199.1875 223.976562 202.855469 C 222.902344 206.527344 221.328125 209.964844 219.253906 213.179688 Z M 175.683594 193.6875 C 175.625 193.824219 175.554688 193.949219 175.46875 194.070312 C 175.382812 194.191406 175.28125 194.300781 175.171875 194.398438 C 175.058594 194.496094 174.9375 194.578125 174.808594 194.648438 C 174.675781 194.71875 174.539062 194.769531 174.394531 194.808594 C 174.253906 194.847656 174.105469 194.867188 173.957031 194.871094 C 173.808594 194.875 173.664062 194.863281 173.519531 194.835938 C 173.375 194.804688 173.234375 194.761719 173.097656 194.699219 C 172.964844 194.636719 172.835938 194.5625 172.71875 194.46875 C 172.601562 194.378906 172.496094 194.277344 172.402344 194.164062 C 172.308594 194.046875 172.230469 193.921875 172.164062 193.789062 C 172.101562 193.65625 172.050781 193.519531 172.019531 193.375 C 171.984375 193.230469 171.96875 193.082031 171.96875 192.933594 C 171.96875 192.789062 171.988281 192.640625 172.019531 192.496094 C 172.054688 192.351562 172.105469 192.214844 172.171875 192.082031 C 172.238281 191.949219 172.316406 191.824219 172.410156 191.710938 C 172.503906 191.597656 172.613281 191.496094 172.730469 191.40625 C 172.847656 191.316406 172.972656 191.238281 173.109375 191.179688 C 173.242188 191.117188 173.382812 191.074219 173.53125 191.046875 C 173.675781 191.015625 173.820312 191.003906 173.96875 191.011719 C 174.117188 191.015625 174.261719 191.039062 174.40625 191.078125 C 174.550781 191.113281 174.6875 191.167969 174.816406 191.238281 C 174.945312 191.308594 175.066406 191.394531 175.179688 191.492188 C 175.289062 191.589844 175.390625 191.699219 175.476562 191.820312 C 175.5625 191.941406 175.632812 192.070312 175.6875 192.207031 C 175.890625 192.699219 175.886719 193.195312 175.679688 193.6875 Z M 175.804688 205.765625 C 175.660156 206.417969 172.78125 213.671875 170.8125 215.273438 C 170.300781 215.691406 169.441406 215.730469 168.460938 215.554688 C 164.789062 213.078125 161.714844 210.003906 159.238281 206.332031 C 159.066406 205.351562 159.101562 204.496094 159.519531 203.980469 C 159.921875 203.488281 160.671875 202.941406 161.589844 202.390625 C 161.816406 202.253906 162.058594 202.117188 162.304688 201.980469 C 162.796875 201.707031 163.316406 201.4375 163.839844 201.179688 C 166.203125 200.015625 168.660156 199.070312 169.027344 198.988281 C 169.21875 198.945312 169.582031 199.035156 170.035156 199.207031 C 170.554688 199.410156 171.058594 199.648438 171.542969 199.917969 C 172.527344 201.160156 173.636719 202.269531 174.875 203.25 C 175.449219 204.300781 175.886719 205.386719 175.800781 205.765625 Z M 175.714844 182.515625 C 175.617188 182.753906 175.476562 182.960938 175.296875 183.140625 C 175.113281 183.324219 174.902344 183.460938 174.667969 183.558594 C 174.429688 183.65625 174.183594 183.707031 173.925781 183.703125 C 173.671875 183.703125 173.425781 183.652344 173.1875 183.554688 C 173.066406 183.503906 172.953125 183.441406 172.84375 183.367188 C 172.660156 183.242188 172.503906 183.089844 172.371094 182.910156 C 172.238281 182.734375 172.140625 182.535156 172.078125 182.324219 C 172.015625 182.109375 171.988281 181.890625 172 181.671875 C 172.011719 181.449219 172.058594 181.234375 172.144531 181.027344 C 172.195312 180.90625 172.257812 180.792969 172.332031 180.683594 C 172.464844 180.488281 172.632812 180.320312 172.828125 180.183594 C 173.027344 180.046875 173.242188 179.953125 173.472656 179.894531 C 173.707031 179.839844 173.941406 179.828125 174.179688 179.859375 C 174.414062 179.890625 174.640625 179.960938 174.847656 180.074219 C 175.058594 180.191406 175.242188 180.335938 175.398438 180.519531 C 175.554688 180.703125 175.671875 180.90625 175.75 181.128906 C 175.832031 181.355469 175.867188 181.589844 175.859375 181.828125 C 175.851562 182.066406 175.804688 182.296875 175.710938 182.519531 Z M 174.871094 171.539062 C 173.632812 172.519531 172.519531 173.632812 171.539062 174.871094 C 170.488281 175.449219 169.402344 175.882812 169.023438 175.800781 C 168.371094 175.65625 161.117188 172.777344 159.515625 170.808594 C 159.253906 170.488281 159.140625 170.035156 159.136719 169.5 C 159.136719 169.394531 159.136719 169.28125 159.148438 169.167969 C 159.164062 168.929688 159.191406 168.695312 159.234375 168.460938 C 159.847656 167.550781 160.503906 166.675781 161.199219 165.832031 C 161.546875 165.410156 161.902344 164.996094 162.273438 164.59375 C 164.117188 162.5625 166.179688 160.777344 168.453125 159.238281 C 168.578125 159.21875 168.699219 159.199219 168.820312 159.183594 C 169.527344 159.097656 170.152344 159.136719 170.601562 159.382812 C 170.675781 159.421875 170.742188 159.46875 170.808594 159.519531 C 171.117188 159.769531 171.445312 160.160156 171.785156 160.640625 C 172.3125 161.414062 172.789062 162.222656 173.214844 163.0625 C 173.28125 163.191406 173.347656 163.320312 173.414062 163.449219 C 173.875 164.363281 174.308594 165.304688 174.675781 166.15625 C 174.832031 166.519531 174.980469 166.867188 175.113281 167.183594 C 175.332031 167.714844 175.507812 168.167969 175.628906 168.5 C 175.675781 168.628906 175.714844 168.742188 175.746094 168.832031 C 175.773438 168.921875 175.792969 168.988281 175.804688 169.03125 C 175.8125 169.085938 175.816406 169.144531 175.8125 169.203125 C 175.773438 169.671875 175.378906 170.621094 174.871094 171.539062 Z M 159.335938 179.964844 C 159.742188 180.078125 160.15625 180.207031 160.574219 180.34375 L 160.988281 180.484375 C 161.265625 180.578125 161.542969 180.675781 161.8125 180.777344 C 163.039062 181.21875 164.1875 181.683594 165.003906 182.039062 C 165.1875 182.117188 165.355469 182.191406 165.5 182.257812 C 165.574219 182.292969 165.644531 182.324219 165.707031 182.351562 C 165.960938 182.472656 166.136719 182.558594 166.207031 182.605469 C 166.328125 182.679688 166.46875 182.882812 166.617188 183.160156 C 166.664062 183.253906 166.714844 183.355469 166.761719 183.464844 C 166.984375 183.976562 167.171875 184.5 167.324219 185.035156 C 167.28125 185.425781 167.246094 185.8125 167.21875 186.207031 C 167.195312 186.601562 167.183594 186.996094 167.183594 187.394531 C 167.183594 187.59375 167.195312 187.792969 167.203125 187.988281 C 167.21875 188.585938 167.257812 189.171875 167.324219 189.753906 C 167.074219 190.617188 166.753906 191.4375 166.46875 191.882812 C 166.402344 192 166.3125 192.105469 166.203125 192.1875 C 166.042969 192.28125 165.875 192.363281 165.703125 192.4375 C 165.640625 192.46875 165.570312 192.5 165.5 192.53125 C 165.351562 192.601562 165.183594 192.671875 165.003906 192.75 C 164.183594 193.105469 163.039062 193.574219 161.8125 194.015625 C 161.539062 194.113281 161.261719 194.210938 160.988281 194.304688 L 160.570312 194.445312 C 160.15625 194.582031 159.738281 194.710938 159.335938 194.828125 C 159.199219 194.867188 159.066406 194.898438 158.933594 194.9375 C 157.738281 195.261719 156.660156 195.453125 155.949219 195.378906 C 155.777344 195.359375 155.613281 195.3125 155.457031 195.234375 C 155.375 195.195312 155.292969 195.148438 155.214844 195.097656 C 155.046875 194.984375 154.890625 194.855469 154.746094 194.710938 C 154.496094 194.460938 154.273438 194.1875 154.074219 193.898438 C 153.761719 192.296875 153.566406 190.679688 153.484375 189.050781 C 153.457031 188.5 153.441406 187.949219 153.441406 187.394531 C 153.441406 186.835938 153.457031 186.285156 153.484375 185.734375 C 153.539062 184.632812 153.648438 183.550781 153.804688 182.480469 C 153.882812 181.945312 153.972656 181.417969 154.074219 180.886719 C 154.210938 180.691406 154.359375 180.5 154.515625 180.316406 C 154.820312 179.972656 155.132812 179.707031 155.457031 179.550781 C 155.613281 179.472656 155.777344 179.425781 155.949219 179.40625 C 156.660156 179.332031 157.738281 179.523438 158.933594 179.847656 C 159.066406 179.886719 159.203125 179.925781 159.335938 179.964844 Z M 178.429688 187.394531 C 178.429688 185.878906 178.789062 184.453125 179.511719 183.121094 C 179.648438 182.867188 179.800781 182.621094 179.960938 182.382812 C 180.164062 182.078125 180.386719 181.789062 180.628906 181.515625 C 180.867188 181.238281 181.125 180.976562 181.394531 180.734375 C 181.667969 180.488281 181.953125 180.261719 182.25 180.050781 C 182.550781 179.84375 182.863281 179.652344 183.183594 179.480469 C 183.507812 179.308594 183.839844 179.15625 184.179688 179.027344 C 184.523438 178.894531 184.871094 178.785156 185.226562 178.695312 C 185.582031 178.609375 185.9375 178.542969 186.300781 178.496094 C 186.664062 178.453125 187.03125 178.429688 187.394531 178.429688 C 187.761719 178.429688 188.125 178.453125 188.488281 178.496094 C 188.851562 178.542969 189.210938 178.609375 189.5625 178.695312 C 189.917969 178.785156 190.265625 178.894531 190.609375 179.027344 C 190.949219 179.15625 191.28125 179.308594 191.605469 179.480469 C 191.929688 179.652344 192.238281 179.84375 192.539062 180.050781 C 192.839844 180.261719 193.125 180.488281 193.394531 180.734375 C 193.667969 180.976562 193.921875 181.238281 194.164062 181.515625 C 194.402344 181.789062 194.625 182.078125 194.828125 182.382812 C 194.988281 182.621094 195.140625 182.867188 195.277344 183.121094 C 196.003906 184.453125 196.363281 185.878906 196.359375 187.394531 C 196.367188 187.988281 196.3125 188.574219 196.203125 189.15625 C 196.089844 189.738281 195.925781 190.300781 195.703125 190.851562 C 195.476562 191.398438 195.203125 191.921875 194.878906 192.414062 C 194.550781 192.910156 194.179688 193.367188 193.761719 193.785156 C 193.347656 194.207031 192.894531 194.582031 192.402344 194.914062 C 191.910156 195.242188 191.390625 195.523438 190.84375 195.75 C 190.296875 195.980469 189.734375 196.152344 189.15625 196.265625 C 188.574219 196.382812 187.988281 196.441406 187.394531 196.441406 C 186.804688 196.441406 186.21875 196.382812 185.636719 196.265625 C 185.054688 196.152344 184.492188 195.980469 183.945312 195.75 C 183.398438 195.523438 182.878906 195.242188 182.390625 194.914062 C 181.898438 194.582031 181.445312 194.207031 181.027344 193.785156 C 180.609375 193.367188 180.238281 192.910156 179.914062 192.414062 C 179.585938 191.921875 179.3125 191.398438 179.089844 190.851562 C 178.867188 190.300781 178.699219 189.738281 178.589844 189.15625 C 178.476562 188.574219 178.425781 187.988281 178.429688 187.394531 Z M 194.796875 174.671875 C 194.648438 175.03125 194.410156 175.316406 194.089844 175.535156 C 193.765625 175.75 193.410156 175.859375 193.023438 175.859375 C 192.761719 175.863281 192.511719 175.8125 192.269531 175.710938 C 192.027344 175.613281 191.816406 175.46875 191.632812 175.28125 C 191.546875 175.191406 191.46875 175.09375 191.398438 174.992188 C 191.167969 174.636719 191.0625 174.246094 191.082031 173.820312 C 191.105469 173.398438 191.253906 173.023438 191.523438 172.695312 C 191.796875 172.367188 192.136719 172.152344 192.550781 172.050781 C 192.964844 171.949219 193.367188 171.980469 193.757812 172.144531 C 194.125 172.296875 194.414062 172.535156 194.632812 172.867188 C 194.808594 173.132812 194.910156 173.429688 194.941406 173.75 C 194.972656 174.070312 194.925781 174.375 194.800781 174.671875 Z M 194.933594 158.933594 C 194.683594 159.863281 194.355469 160.863281 194.011719 161.8125 C 193.914062 162.085938 193.816406 162.355469 193.714844 162.613281 C 193.171875 164.054688 192.632812 165.292969 192.351562 165.878906 C 192.273438 166.039062 192.21875 166.152344 192.183594 166.203125 C 191.976562 166.53125 190.902344 166.992188 189.75 167.324219 C 189.363281 167.28125 188.972656 167.246094 188.582031 167.21875 C 188.1875 167.195312 187.789062 167.183594 187.390625 167.183594 C 186.992188 167.183594 186.597656 167.195312 186.203125 167.21875 C 185.808594 167.246094 185.417969 167.28125 185.03125 167.324219 C 183.882812 166.992188 182.808594 166.53125 182.601562 166.203125 C 182.566406 166.152344 182.507812 166.039062 182.429688 165.878906 C 182.148438 165.296875 181.613281 164.054688 181.066406 162.613281 C 180.96875 162.351562 180.867188 162.085938 180.769531 161.8125 C 180.425781 160.863281 180.097656 159.863281 179.847656 158.933594 C 179.773438 158.667969 179.710938 158.410156 179.652344 158.160156 C 179.625 158.03125 179.597656 157.910156 179.574219 157.789062 C 179.523438 157.546875 179.484375 157.316406 179.453125 157.09375 C 179.4375 156.988281 179.425781 156.878906 179.417969 156.777344 C 179.398438 156.585938 179.386719 156.394531 179.390625 156.203125 C 179.390625 156.117188 179.398438 156.03125 179.40625 155.953125 C 179.457031 155.457031 179.800781 154.972656 180.316406 154.523438 C 180.5 154.363281 180.6875 154.214844 180.886719 154.078125 C 181.941406 153.875 183.007812 153.71875 184.09375 153.609375 C 185.179688 153.5 186.277344 153.449219 187.390625 153.449219 C 188.503906 153.449219 189.601562 153.5 190.6875 153.609375 C 191.773438 153.71875 192.84375 153.875 193.898438 154.078125 C 194.277344 154.335938 194.621094 154.636719 194.921875 154.984375 C 194.988281 155.0625 195.046875 155.140625 195.097656 155.21875 C 195.25 155.441406 195.34375 155.6875 195.378906 155.953125 C 195.386719 156.03125 195.390625 156.117188 195.394531 156.203125 C 195.394531 156.394531 195.386719 156.585938 195.367188 156.777344 C 195.359375 156.878906 195.34375 156.988281 195.328125 157.09375 C 195.300781 157.3125 195.257812 157.546875 195.210938 157.789062 C 195.1875 157.910156 195.160156 158.03125 195.128906 158.160156 C 195.074219 158.40625 195.011719 158.667969 194.9375 158.933594 Z M 180.769531 172.292969 C 180.878906 172.222656 180.992188 172.160156 181.113281 172.109375 C 181.445312 171.972656 181.785156 171.933594 182.140625 171.988281 C 182.492188 172.039062 182.808594 172.179688 183.082031 172.410156 C 183.355469 172.636719 183.554688 172.917969 183.671875 173.257812 C 183.789062 173.59375 183.8125 173.9375 183.742188 174.289062 C 183.691406 174.53125 183.597656 174.757812 183.457031 174.96875 C 183.238281 175.296875 182.949219 175.535156 182.585938 175.683594 C 182.363281 175.773438 182.132812 175.824219 181.894531 175.828125 C 181.652344 175.835938 181.421875 175.796875 181.195312 175.714844 C 180.96875 175.636719 180.765625 175.515625 180.585938 175.359375 C 180.402344 175.203125 180.257812 175.019531 180.144531 174.808594 C 180.03125 174.597656 179.960938 174.375 179.929688 174.136719 C 179.898438 173.898438 179.914062 173.664062 179.972656 173.429688 C 180.03125 173.199219 180.128906 172.984375 180.265625 172.789062 C 180.402344 172.59375 180.570312 172.425781 180.769531 172.292969 Z M 182.605469 208.582031 C 182.8125 208.257812 183.886719 207.796875 185.035156 207.460938 C 186.609375 207.652344 188.179688 207.652344 189.753906 207.460938 C 190.90625 207.796875 191.980469 208.257812 192.1875 208.582031 C 192.550781 209.148438 195.640625 216.3125 195.382812 218.839844 C 195.3125 219.503906 194.726562 220.136719 193.898438 220.714844 C 189.5625 221.5625 185.226562 221.5625 180.890625 220.714844 C 180.0625 220.140625 179.476562 219.503906 179.410156 218.839844 C 179.152344 216.308594 182.242188 209.148438 182.605469 208.582031 Z M 179.839844 200.871094 C 179.839844 200.582031 179.898438 200.308594 180.023438 200.046875 C 180.144531 199.785156 180.316406 199.5625 180.539062 199.375 C 180.761719 199.191406 181.015625 199.0625 181.296875 198.992188 C 181.574219 198.921875 181.859375 198.914062 182.140625 198.96875 C 182.402344 199.019531 182.640625 199.117188 182.859375 199.269531 C 182.996094 199.363281 183.121094 199.472656 183.230469 199.597656 C 183.339844 199.722656 183.429688 199.859375 183.503906 200.007812 C 183.578125 200.15625 183.632812 200.3125 183.664062 200.476562 C 183.699219 200.640625 183.710938 200.804688 183.699219 200.96875 C 183.691406 201.136719 183.660156 201.296875 183.609375 201.457031 C 183.558594 201.617188 183.488281 201.765625 183.398438 201.90625 C 183.308594 202.042969 183.203125 202.171875 183.082031 202.285156 C 182.960938 202.398438 182.824219 202.492188 182.679688 202.570312 C 182.53125 202.648438 182.375 202.707031 182.214844 202.746094 C 182.054688 202.78125 181.890625 202.800781 181.722656 202.796875 C 181.554688 202.789062 181.394531 202.765625 181.234375 202.71875 C 181.074219 202.671875 180.921875 202.605469 180.78125 202.523438 C 180.636719 202.4375 180.507812 202.335938 180.390625 202.214844 C 180.273438 202.097656 180.175781 201.964844 180.09375 201.820312 C 180.011719 201.675781 179.949219 201.523438 179.90625 201.363281 C 179.863281 201.203125 179.839844 201.039062 179.839844 200.871094 Z M 191.863281 199.285156 C 191.972656 199.214844 192.085938 199.152344 192.207031 199.101562 C 192.445312 199.003906 192.691406 198.957031 192.945312 198.957031 C 193.203125 198.957031 193.449219 199.007812 193.6875 199.105469 C 193.921875 199.207031 194.128906 199.347656 194.3125 199.527344 C 194.492188 199.710938 194.632812 199.917969 194.726562 200.15625 C 194.824219 200.390625 194.875 200.640625 194.875 200.894531 C 194.871094 201.152344 194.824219 201.398438 194.722656 201.632812 C 194.625 201.871094 194.484375 202.078125 194.304688 202.257812 C 194.121094 202.441406 193.914062 202.578125 193.675781 202.675781 C 193.4375 202.773438 193.191406 202.824219 192.9375 202.820312 C 192.679688 202.820312 192.433594 202.769531 192.195312 202.671875 C 191.960938 202.574219 191.753906 202.433594 191.570312 202.253906 C 191.390625 202.070312 191.25 201.859375 191.15625 201.625 C 191.054688 201.382812 191.007812 201.132812 191.007812 200.871094 C 191.015625 200.195312 191.300781 199.664062 191.863281 199.285156 Z M 200.160156 180.0625 C 200.398438 179.964844 200.644531 179.914062 200.898438 179.917969 C 201.15625 179.917969 201.402344 179.964844 201.636719 180.066406 C 201.875 180.164062 202.082031 180.304688 202.265625 180.484375 C 202.445312 180.667969 202.582031 180.875 202.679688 181.113281 C 202.777344 181.351562 202.828125 181.597656 202.828125 181.855469 C 202.824219 182.109375 202.777344 182.355469 202.675781 182.59375 C 202.578125 182.828125 202.4375 183.039062 202.257812 183.21875 C 202.074219 183.398438 201.867188 183.539062 201.628906 183.636719 C 201.390625 183.734375 201.144531 183.78125 200.890625 183.78125 C 200.632812 183.78125 200.386719 183.730469 200.148438 183.632812 C 199.914062 183.53125 199.703125 183.390625 199.523438 183.210938 C 199.34375 183.027344 199.203125 182.820312 199.105469 182.582031 C 199.007812 182.339844 198.957031 182.089844 198.960938 181.828125 C 198.964844 181.441406 199.074219 181.085938 199.292969 180.765625 C 199.511719 180.441406 199.800781 180.207031 200.160156 180.0625 Z M 198.988281 169.027344 C 198.992188 169.007812 199 168.980469 199.011719 168.945312 C 199.039062 168.847656 199.09375 168.695312 199.164062 168.496094 C 199.332031 168.035156 199.609375 167.332031 199.960938 166.507812 C 200.359375 165.574219 200.847656 164.488281 201.375 163.445312 C 201.441406 163.316406 201.507812 163.1875 201.574219 163.058594 C 202 162.21875 202.476562 161.414062 203.003906 160.636719 C 203.074219 160.539062 203.140625 160.449219 203.207031 160.359375 C 203.433594 160.046875 203.691406 159.769531 203.980469 159.519531 C 204.496094 159.097656 205.351562 159.0625 206.332031 159.234375 C 210.003906 161.714844 213.078125 164.789062 215.554688 168.460938 C 215.730469 169.441406 215.695312 170.296875 215.273438 170.8125 C 214.875 171.304688 214.121094 171.851562 213.203125 172.402344 C 212.519531 172.8125 211.742188 173.222656 210.953125 173.613281 L 210.558594 173.804688 C 210.296875 173.929688 210.03125 174.054688 209.773438 174.171875 C 209.125 174.46875 208.5 174.742188 207.9375 174.976562 C 206.820312 175.445312 205.96875 175.757812 205.765625 175.804688 C 205.386719 175.886719 204.300781 175.453125 203.25 174.875 C 203.007812 174.566406 202.753906 174.261719 202.492188 173.96875 C 202.226562 173.675781 201.957031 173.390625 201.679688 173.109375 C 201.125 172.554688 200.535156 172.03125 199.917969 171.542969 C 199.410156 170.625 199.015625 169.675781 198.980469 169.199219 C 198.976562 169.140625 198.976562 169.082031 198.988281 169.027344 Z M 208.582031 192.1875 C 208.257812 191.980469 207.796875 190.90625 207.464844 189.757812 C 207.53125 189.175781 207.566406 188.585938 207.585938 187.992188 C 207.589844 187.792969 207.605469 187.597656 207.605469 187.398438 C 207.605469 186.996094 207.59375 186.601562 207.566406 186.207031 C 207.542969 185.816406 207.507812 185.425781 207.464844 185.039062 C 207.796875 183.886719 208.257812 182.8125 208.582031 182.605469 C 209.148438 182.246094 216.3125 179.152344 218.839844 179.410156 C 219.503906 179.480469 220.136719 180.066406 220.714844 180.894531 C 221.5625 185.230469 221.5625 189.566406 220.714844 193.902344 C 220.640625 194.003906 220.570312 194.105469 220.496094 194.199219 C 220.355469 194.382812 220.207031 194.554688 220.042969 194.714844 C 219.65625 195.09375 219.253906 195.339844 218.839844 195.382812 C 216.3125 195.640625 209.148438 192.546875 208.582031 192.1875 Z M 215.554688 206.335938 C 213.078125 210.007812 210.003906 213.082031 206.332031 215.558594 C 205.351562 215.730469 204.496094 215.695312 203.980469 215.277344 C 202.015625 213.675781 199.136719 206.421875 198.988281 205.765625 C 198.90625 205.390625 199.339844 204.300781 199.917969 203.253906 C 200.226562 203.007812 200.53125 202.757812 200.824219 202.492188 C 201.707031 201.707031 202.515625 200.847656 203.25 199.921875 C 204.300781 199.339844 205.386719 198.90625 205.765625 198.992188 C 205.847656 199.007812 206.03125 199.070312 206.296875 199.167969 C 206.628906 199.289062 207.082031 199.464844 207.613281 199.679688 C 207.824219 199.769531 208.046875 199.863281 208.28125 199.960938 C 210.738281 201.007812 214.222656 202.691406 215.273438 203.980469 C 215.695312 204.496094 215.726562 205.351562 215.554688 206.332031 Z M 199.078125 192.273438 C 199.175781 192.039062 199.316406 191.832031 199.5 191.648438 C 199.679688 191.46875 199.890625 191.328125 200.128906 191.230469 C 200.363281 191.132812 200.609375 191.085938 200.867188 191.085938 C 201.125 191.085938 201.371094 191.136719 201.605469 191.238281 C 201.726562 191.285156 201.84375 191.347656 201.949219 191.421875 C 202.507812 191.804688 202.789062 192.335938 202.792969 193.011719 C 202.792969 193.140625 202.78125 193.265625 202.757812 193.390625 C 202.707031 193.65625 202.601562 193.902344 202.445312 194.128906 C 202.289062 194.351562 202.09375 194.535156 201.859375 194.675781 C 201.625 194.816406 201.371094 194.902344 201.101562 194.9375 C 200.828125 194.96875 200.5625 194.945312 200.300781 194.867188 C 200.039062 194.789062 199.804688 194.660156 199.597656 194.480469 C 199.394531 194.304688 199.230469 194.089844 199.113281 193.84375 C 199 193.597656 198.9375 193.335938 198.929688 193.0625 C 198.925781 192.789062 198.972656 192.527344 199.078125 192.273438 Z M 187.394531 125.96875 C 152.8125 125.96875 124.550781 154.265625 123.445312 189.480469 C 123.425781 188.789062 123.410156 188.09375 123.410156 187.394531 C 123.410156 152.117188 152.113281 123.410156 187.394531 123.410156 C 222.675781 123.410156 251.382812 152.113281 251.382812 187.394531 C 251.382812 188.09375 251.367188 188.789062 251.34375 189.480469 C 250.238281 154.265625 221.980469 125.96875 187.394531 125.96875 Z M 187.394531 125.96875 " fill-opacity="1" fill-rule="nonzero"/></g><path fill="#ffcf7a" d="M 187.394531 123.410156 C 152.117188 123.410156 123.410156 152.113281 123.410156 187.394531 C 123.410156 188.09375 123.425781 188.789062 123.445312 189.480469 C 124.550781 154.265625 152.8125 125.96875 187.394531 125.96875 C 221.980469 125.96875 250.238281 154.265625 251.34375 189.480469 C 251.367188 188.789062 251.382812 188.09375 251.382812 187.394531 C 251.382812 152.113281 222.675781 123.410156 187.394531 123.410156 Z M 187.394531 123.410156 " fill-opacity="1" fill-rule="nonzero"/><path fill="#ffcf7a" d="M 187.394531 225.578125 C 167.039062 225.578125 150.355469 209.570312 149.269531 189.480469 C 149.230469 190.1875 149.210938 190.902344 149.210938 191.621094 C 149.203125 195.613281 149.785156 199.515625 150.957031 203.332031 C 152.128906 207.148438 153.839844 210.707031 156.085938 214.007812 C 156.179688 214.144531 156.273438 214.28125 156.371094 214.417969 C 156.6875 214.875 157.015625 215.320312 157.355469 215.761719 C 157.453125 215.890625 157.546875 216.019531 157.644531 216.144531 C 157.84375 216.398438 158.046875 216.648438 158.25 216.898438 C 158.363281 217.03125 158.476562 217.164062 158.589844 217.300781 C 158.929688 217.699219 159.277344 218.089844 159.625 218.472656 C 159.757812 218.621094 159.890625 218.765625 160.027344 218.90625 C 160.238281 219.121094 160.449219 219.347656 160.660156 219.558594 C 160.875 219.773438 161.113281 220.003906 161.34375 220.222656 C 161.609375 220.480469 161.878906 220.730469 162.152344 220.980469 C 162.328125 221.136719 162.503906 221.292969 162.679688 221.449219 C 162.949219 221.6875 163.226562 221.917969 163.503906 222.148438 C 163.761719 222.363281 164.023438 222.574219 164.285156 222.78125 C 164.492188 222.941406 164.699219 223.097656 164.90625 223.253906 C 165.148438 223.4375 165.394531 223.613281 165.640625 223.789062 C 165.910156 223.984375 166.183594 224.171875 166.457031 224.355469 C 166.730469 224.539062 167.007812 224.722656 167.289062 224.90625 C 167.480469 225.027344 167.675781 225.152344 167.871094 225.269531 C 168.265625 225.511719 168.660156 225.746094 169.0625 225.976562 C 169.226562 226.066406 169.394531 226.15625 169.558594 226.246094 C 169.878906 226.417969 170.199219 226.589844 170.523438 226.753906 C 170.691406 226.839844 170.855469 226.925781 171.023438 227.007812 C 171.460938 227.21875 171.90625 227.425781 172.355469 227.625 C 172.515625 227.695312 172.675781 227.761719 172.835938 227.832031 C 173.230469 228 173.625 228.160156 174.027344 228.3125 C 174.136719 228.355469 174.246094 228.402344 174.355469 228.441406 C 174.839844 228.625 175.332031 228.792969 175.824219 228.953125 C 175.976562 229 176.125 229.046875 176.277344 229.097656 C 176.78125 229.253906 177.289062 229.40625 177.804688 229.542969 C 177.882812 229.566406 177.964844 229.582031 178.046875 229.605469 C 178.515625 229.726562 178.992188 229.835938 179.46875 229.941406 C 179.601562 229.96875 179.730469 230 179.863281 230.027344 C 180.394531 230.136719 180.929688 230.234375 181.46875 230.320312 C 181.582031 230.339844 181.695312 230.355469 181.808594 230.371094 C 182.300781 230.445312 182.800781 230.511719 183.300781 230.566406 C 183.390625 230.578125 183.480469 230.589844 183.574219 230.597656 C 184.132812 230.65625 184.695312 230.699219 185.257812 230.730469 C 185.386719 230.738281 185.515625 230.742188 185.644531 230.75 C 186.226562 230.777344 186.808594 230.796875 187.390625 230.796875 C 187.972656 230.796875 188.558594 230.777344 189.140625 230.75 C 189.269531 230.742188 189.394531 230.738281 189.523438 230.730469 C 190.089844 230.699219 190.652344 230.65625 191.210938 230.597656 C 191.300781 230.589844 191.390625 230.578125 191.480469 230.566406 C 191.984375 230.511719 192.480469 230.445312 192.976562 230.371094 C 193.085938 230.355469 193.203125 230.339844 193.3125 230.320312 C 193.851562 230.234375 194.390625 230.136719 194.921875 230.027344 C 195.050781 230 195.183594 229.96875 195.3125 229.941406 C 195.792969 229.835938 196.265625 229.722656 196.738281 229.605469 C 196.816406 229.582031 196.898438 229.566406 196.980469 229.542969 C 197.492188 229.40625 198 229.253906 198.507812 229.097656 C 198.660156 229.050781 198.808594 229 198.960938 228.953125 C 199.453125 228.789062 199.945312 228.621094 200.429688 228.441406 C 200.539062 228.402344 200.648438 228.355469 200.757812 228.3125 C 201.15625 228.160156 201.554688 228 201.945312 227.832031 C 202.109375 227.761719 202.269531 227.695312 202.429688 227.625 C 202.878906 227.425781 203.320312 227.222656 203.757812 227.007812 C 203.929688 226.925781 204.09375 226.839844 204.261719 226.753906 C 204.585938 226.589844 204.90625 226.417969 205.222656 226.246094 C 205.386719 226.152344 205.554688 226.066406 205.722656 225.972656 C 206.125 225.746094 206.523438 225.507812 206.914062 225.269531 C 207.109375 225.148438 207.304688 225.027344 207.496094 224.902344 C 207.773438 224.726562 208.050781 224.542969 208.324219 224.359375 C 208.597656 224.171875 208.871094 223.984375 209.144531 223.789062 C 209.390625 223.613281 209.636719 223.433594 209.875 223.253906 C 210.085938 223.097656 210.292969 222.941406 210.496094 222.78125 C 210.757812 222.574219 211.015625 222.367188 211.273438 222.15625 C 211.554688 221.921875 211.832031 221.6875 212.105469 221.449219 C 212.28125 221.292969 212.457031 221.136719 212.628906 220.980469 C 212.90625 220.730469 213.179688 220.472656 213.449219 220.214844 C 213.675781 219.996094 213.902344 219.777344 214.121094 219.558594 C 214.339844 219.339844 214.546875 219.125 214.757812 218.90625 C 214.890625 218.757812 215.023438 218.617188 215.15625 218.472656 C 215.507812 218.089844 215.855469 217.699219 216.195312 217.300781 C 216.308594 217.164062 216.421875 217.035156 216.53125 216.898438 C 216.738281 216.648438 216.941406 216.398438 217.136719 216.144531 C 217.238281 216.019531 217.335938 215.886719 217.429688 215.761719 C 217.765625 215.320312 218.09375 214.875 218.410156 214.421875 C 218.507812 214.28125 218.601562 214.144531 218.703125 214.007812 C 218.886719 213.734375 219.070312 213.460938 219.25 213.183594 C 221.324219 209.96875 222.898438 206.527344 223.972656 202.859375 C 225.050781 199.191406 225.585938 195.445312 225.578125 191.621094 C 225.578125 190.902344 225.558594 190.191406 225.519531 189.480469 C 224.433594 209.570312 207.75 225.578125 187.394531 225.578125 Z M 187.394531 225.578125 " fill-opacity="1" fill-rule="nonzero"/><path fill="#d56213" d="M 187.394531 244.835938 C 157.085938 244.835938 132.425781 220.175781 132.425781 189.867188 C 132.425781 159.558594 157.085938 134.898438 187.394531 134.898438 C 217.703125 134.898438 242.363281 159.558594 242.363281 189.867188 C 242.363281 220.175781 217.703125 244.835938 187.394531 244.835938 Z M 187.394531 136.714844 C 158.085938 136.714844 134.242188 160.558594 134.242188 189.867188 C 134.242188 219.175781 158.085938 243.019531 187.394531 243.019531 C 216.703125 243.019531 240.546875 219.175781 240.546875 189.867188 C 240.546875 160.558594 216.703125 136.714844 187.394531 136.714844 Z M 187.394531 136.714844 " fill-opacity="1" fill-rule="nonzero"/><g clip-path="url(#bb863c355e)"><path fill="#160036" d="M 98.554688 168.257812 L 98.554688 175.195312 L 91.769531 175.195312 L 91.769531 168.257812 Z M 98.554688 168.257812 " fill-opacity="1" fill-rule="evenodd"/></g><path fill="#160036" d="M 98.554688 195.996094 L 98.554688 202.933594 L 91.769531 202.933594 L 91.769531 195.996094 Z M 98.554688 195.996094 " fill-opacity="1" fill-rule="evenodd"/><g clip-path="url(#b7dd3f9889)"><path fill="#160036" d="M 85.011719 168.257812 L 85.011719 175.195312 L 78.226562 175.195312 L 78.226562 168.257812 Z M 85.011719 168.257812 " fill-opacity="1" fill-rule="evenodd"/></g><path fill="#160036" d="M 85.011719 195.996094 L 85.011719 202.933594 L 78.226562 202.933594 L 78.226562 195.996094 Z M 85.011719 195.996094 " fill-opacity="1" fill-rule="evenodd"/><g clip-path="url(#cc469cc8b8)"><path fill="#160036" d="M 71.46875 168.257812 L 71.46875 175.195312 L 64.679688 175.195312 L 64.679688 168.257812 Z M 71.46875 168.257812 " fill-opacity="1" fill-rule="evenodd"/></g><path fill="#160036" d="M 71.46875 195.996094 L 71.46875 202.933594 L 64.679688 202.933594 L 64.679688 195.996094 Z M 71.46875 195.996094 " fill-opacity="1" fill-rule="evenodd"/><g clip-path="url(#93f3be7d84)"><path fill="#160036" d="M 57.921875 168.257812 L 57.921875 175.195312 L 51.136719 175.195312 L 51.136719 168.257812 Z M 57.921875 168.257812 " fill-opacity="1" fill-rule="evenodd"/></g><path fill="#160036" d="M 57.921875 195.996094 L 57.921875 202.933594 L 51.136719 202.933594 L 51.136719 195.996094 Z M 57.921875 195.996094 " fill-opacity="1" fill-rule="evenodd"/><g clip-path="url(#5ff3195328)"><path fill="#160036" d="M 44.378906 168.257812 L 44.378906 175.195312 L 37.589844 175.195312 L 37.589844 168.257812 Z M 44.378906 168.257812 " fill-opacity="1" fill-rule="evenodd"/></g><path fill="#160036" d="M 44.378906 195.996094 L 44.378906 202.933594 L 37.589844 202.933594 L 37.589844 195.996094 Z M 44.378906 195.996094 " fill-opacity="1" fill-rule="evenodd"/><g clip-path="url(#e15b43d199)"><path fill="#160036" d="M 112.125 168.257812 L 112.125 175.195312 L 105.335938 175.195312 L 105.335938 168.257812 Z M 112.125 168.257812 " fill-opacity="1" fill-rule="evenodd"/></g><g clip-path="url(#f5546a9a59)"><path fill="#160036" d="M 112.125 195.996094 L 112.125 202.933594 L 105.335938 202.933594 L 105.335938 195.996094 Z M 112.125 195.996094 " fill-opacity="1" fill-rule="evenodd"/></g><path fill="#160036" d="M 91.769531 175.195312 L 91.769531 182.136719 L 84.984375 182.136719 L 84.984375 175.195312 Z M 91.769531 175.195312 " fill-opacity="1" fill-rule="evenodd"/><g clip-path="url(#a4afdc2de9)"><path fill="#160036" d="M 91.769531 202.933594 L 91.769531 209.875 L 84.984375 209.875 L 84.984375 202.933594 Z M 91.769531 202.933594 " fill-opacity="1" fill-rule="evenodd"/></g><path fill="#160036" d="M 78.226562 175.195312 L 78.226562 182.136719 L 71.4375 182.136719 L 71.4375 175.195312 Z M 78.226562 175.195312 " fill-opacity="1" fill-rule="evenodd"/><g clip-path="url(#17a48563f6)"><path fill="#160036" d="M 78.226562 202.933594 L 78.226562 209.875 L 71.4375 209.875 L 71.4375 202.933594 Z M 78.226562 202.933594 " fill-opacity="1" fill-rule="evenodd"/></g><path fill="#160036" d="M 64.679688 175.195312 L 64.679688 182.136719 L 57.890625 182.136719 L 57.890625 175.195312 Z M 64.679688 175.195312 " fill-opacity="1" fill-rule="evenodd"/><g clip-path="url(#d5b9645e77)"><path fill="#160036" d="M 64.679688 202.933594 L 64.679688 209.875 L 57.890625 209.875 L 57.890625 202.933594 Z M 64.679688 202.933594 " fill-opacity="1" fill-rule="evenodd"/></g><path fill="#160036" d="M 51.136719 175.195312 L 51.136719 182.136719 L 44.347656 182.136719 L 44.347656 175.195312 Z M 51.136719 175.195312 " fill-opacity="1" fill-rule="evenodd"/><g clip-path="url(#b55e398584)"><path fill="#160036" d="M 51.136719 202.933594 L 51.136719 209.875 L 44.347656 209.875 L 44.347656 202.933594 Z M 51.136719 202.933594 " fill-opacity="1" fill-rule="evenodd"/></g><g clip-path="url(#a0d99be6c0)"><path fill="#160036" d="M 37.589844 175.195312 L 37.589844 182.136719 L 30.804688 182.136719 L 30.804688 175.195312 Z M 37.589844 175.195312 " fill-opacity="1" fill-rule="evenodd"/></g><g clip-path="url(#531cc473ba)"><path fill="#160036" d="M 37.589844 202.933594 L 37.589844 209.875 L 30.804688 209.875 L 30.804688 202.933594 Z M 37.589844 202.933594 " fill-opacity="1" fill-rule="evenodd"/></g><g clip-path="url(#382e6b4764)"><path fill="#160036" d="M 105.335938 175.195312 L 105.335938 182.136719 L 98.550781 182.136719 L 98.550781 175.195312 Z M 105.335938 175.195312 " fill-opacity="1" fill-rule="evenodd"/></g><g clip-path="url(#1a3c1c45b1)"><path fill="#160036" d="M 105.335938 202.933594 L 105.335938 209.875 L 98.550781 209.875 L 98.550781 202.933594 Z M 105.335938 202.933594 " fill-opacity="1" fill-rule="evenodd"/></g><path fill="#160036" d="M 98.554688 182.136719 L 98.554688 189.074219 L 91.769531 189.074219 L 91.769531 182.136719 Z M 98.554688 182.136719 " fill-opacity="1" fill-rule="evenodd"/><path fill="#160036" d="M 85.011719 182.136719 L 85.011719 189.074219 L 78.226562 189.074219 L 78.226562 182.136719 Z M 85.011719 182.136719 " fill-opacity="1" fill-rule="evenodd"/><path fill="#160036" d="M 71.46875 182.136719 L 71.46875 189.074219 L 64.679688 189.074219 L 64.679688 182.136719 Z M 71.46875 182.136719 " fill-opacity="1" fill-rule="evenodd"/><path fill="#160036" d="M 57.921875 182.136719 L 57.921875 189.074219 L 51.136719 189.074219 L 51.136719 182.136719 Z M 57.921875 182.136719 " fill-opacity="1" fill-rule="evenodd"/><path fill="#160036" d="M 44.378906 182.136719 L 44.378906 189.074219 L 37.589844 189.074219 L 37.589844 182.136719 Z M 44.378906 182.136719 " fill-opacity="1" fill-rule="evenodd"/><g clip-path="url(#abdf5cd654)"><path fill="#160036" d="M 112.125 182.136719 L 112.125 189.074219 L 105.335938 189.074219 L 105.335938 182.136719 Z M 112.125 182.136719 " fill-opacity="1" fill-rule="evenodd"/></g><path fill="#160036" d="M 91.769531 189.074219 L 91.769531 196.015625 L 84.984375 196.015625 L 84.984375 189.074219 Z M 91.769531 189.074219 " fill-opacity="1" fill-rule="evenodd"/><path fill="#160036" d="M 78.226562 189.074219 L 78.226562 196.015625 L 71.4375 196.015625 L 71.4375 189.074219 Z M 78.226562 189.074219 " fill-opacity="1" fill-rule="evenodd"/><path fill="#160036" d="M 64.679688 189.074219 L 64.679688 196.015625 L 57.890625 196.015625 L 57.890625 189.074219 Z M 64.679688 189.074219 " fill-opacity="1" fill-rule="evenodd"/><path fill="#160036" d="M 51.136719 189.074219 L 51.136719 196.015625 L 44.347656 196.015625 L 44.347656 189.074219 Z M 51.136719 189.074219 " fill-opacity="1" fill-rule="evenodd"/><g clip-path="url(#c2ffc63c67)"><path fill="#160036" d="M 37.589844 189.074219 L 37.589844 196.015625 L 30.804688 196.015625 L 30.804688 189.074219 Z M 37.589844 189.074219 " fill-opacity="1" fill-rule="evenodd"/></g><g clip-path="url(#45a4d4874b)"><path fill="#160036" d="M 105.335938 189.074219 L 105.335938 196.015625 L 98.550781 196.015625 L 98.550781 189.074219 Z M 105.335938 189.074219 " fill-opacity="1" fill-rule="evenodd"/></g><g clip-path="url(#eac5ee9545)"><path fill="#160036" d="M 275.726562 168.257812 L 275.726562 175.195312 L 282.515625 175.195312 L 282.515625 168.257812 Z M 275.726562 168.257812 " fill-opacity="1" fill-rule="evenodd"/></g><path fill="#160036" d="M 275.726562 195.996094 L 275.726562 202.933594 L 282.515625 202.933594 L 282.515625 195.996094 Z M 275.726562 195.996094 " fill-opacity="1" fill-rule="evenodd"/><g clip-path="url(#0a191c4842)"><path fill="#160036" d="M 289.273438 168.257812 L 289.273438 175.195312 L 296.058594 175.195312 L 296.058594 168.257812 Z M 289.273438 168.257812 " fill-opacity="1" fill-rule="evenodd"/></g><path fill="#160036" d="M 289.273438 195.996094 L 289.273438 202.933594 L 296.058594 202.933594 L 296.058594 195.996094 Z M 289.273438 195.996094 " fill-opacity="1" fill-rule="evenodd"/><g clip-path="url(#7cab00f541)"><path fill="#160036" d="M 302.816406 168.257812 L 302.816406 175.195312 L 309.601562 175.195312 L 309.601562 168.257812 Z M 302.816406 168.257812 " fill-opacity="1" fill-rule="evenodd"/></g><path fill="#160036" d="M 302.816406 195.996094 L 302.816406 202.933594 L 309.601562 202.933594 L 309.601562 195.996094 Z M 302.816406 195.996094 " fill-opacity="1" fill-rule="evenodd"/><g clip-path="url(#9db2c87886)"><path fill="#160036" d="M 316.363281 168.257812 L 316.363281 175.195312 L 323.148438 175.195312 L 323.148438 168.257812 Z M 316.363281 168.257812 " fill-opacity="1" fill-rule="evenodd"/></g><path fill="#160036" d="M 316.363281 195.996094 L 316.363281 202.933594 L 323.148438 202.933594 L 323.148438 195.996094 Z M 316.363281 195.996094 " fill-opacity="1" fill-rule="evenodd"/><g clip-path="url(#64a0414e79)"><path fill="#160036" d="M 329.90625 168.257812 L 329.90625 175.195312 L 336.691406 175.195312 L 336.691406 168.257812 Z M 329.90625 168.257812 " fill-opacity="1" fill-rule="evenodd"/></g><path fill="#160036" d="M 329.90625 195.996094 L 329.90625 202.933594 L 336.691406 202.933594 L 336.691406 195.996094 Z M 329.90625 195.996094 " fill-opacity="1" fill-rule="evenodd"/><g clip-path="url(#a69578dab6)"><path fill="#160036" d="M 262.160156 168.257812 L 262.160156 175.195312 L 268.945312 175.195312 L 268.945312 168.257812 Z M 262.160156 168.257812 " fill-opacity="1" fill-rule="evenodd"/></g><g clip-path="url(#a2226944cb)"><path fill="#160036" d="M 262.160156 195.996094 L 262.160156 202.933594 L 268.945312 202.933594 L 268.945312 195.996094 Z M 262.160156 195.996094 " fill-opacity="1" fill-rule="evenodd"/></g><path fill="#160036" d="M 282.515625 175.195312 L 282.515625 182.136719 L 289.300781 182.136719 L 289.300781 175.195312 Z M 282.515625 175.195312 " fill-opacity="1" fill-rule="evenodd"/><g clip-path="url(#8361ffaaca)"><path fill="#160036" d="M 282.515625 202.933594 L 282.515625 209.875 L 289.300781 209.875 L 289.300781 202.933594 Z M 282.515625 202.933594 " fill-opacity="1" fill-rule="evenodd"/></g><path fill="#160036" d="M 296.058594 175.195312 L 296.058594 182.136719 L 302.847656 182.136719 L 302.847656 175.195312 Z M 296.058594 175.195312 " fill-opacity="1" fill-rule="evenodd"/><g clip-path="url(#4debe62ce7)"><path fill="#160036" d="M 296.058594 202.933594 L 296.058594 209.875 L 302.847656 209.875 L 302.847656 202.933594 Z M 296.058594 202.933594 " fill-opacity="1" fill-rule="evenodd"/></g><path fill="#160036" d="M 309.605469 175.195312 L 309.605469 182.136719 L 316.390625 182.136719 L 316.390625 175.195312 Z M 309.605469 175.195312 " fill-opacity="1" fill-rule="evenodd"/><g clip-path="url(#0df7a40cbc)"><path fill="#160036" d="M 309.605469 202.933594 L 309.605469 209.875 L 316.390625 209.875 L 316.390625 202.933594 Z M 309.605469 202.933594 " fill-opacity="1" fill-rule="evenodd"/></g><path fill="#160036" d="M 323.148438 175.195312 L 323.148438 182.136719 L 329.9375 182.136719 L 329.9375 175.195312 Z M 323.148438 175.195312 " fill-opacity="1" fill-rule="evenodd"/><g clip-path="url(#b04e715e5b)"><path fill="#160036" d="M 323.148438 202.933594 L 323.148438 209.875 L 329.9375 209.875 L 329.9375 202.933594 Z M 323.148438 202.933594 " fill-opacity="1" fill-rule="evenodd"/></g><g clip-path="url(#9b764cc3aa)"><path fill="#160036" d="M 336.691406 175.195312 L 336.691406 182.136719 L 343.480469 182.136719 L 343.480469 175.195312 Z M 336.691406 175.195312 " fill-opacity="1" fill-rule="evenodd"/></g><g clip-path="url(#76b2435384)"><path fill="#160036" d="M 336.691406 202.933594 L 336.691406 209.875 L 343.480469 209.875 L 343.480469 202.933594 Z M 336.691406 202.933594 " fill-opacity="1" fill-rule="evenodd"/></g><g clip-path="url(#0397999ce9)"><path fill="#160036" d="M 268.945312 175.195312 L 268.945312 182.136719 L 275.734375 182.136719 L 275.734375 175.195312 Z M 268.945312 175.195312 " fill-opacity="1" fill-rule="evenodd"/></g><g clip-path="url(#acecaf8d69)"><path fill="#160036" d="M 268.945312 202.933594 L 268.945312 209.875 L 275.734375 209.875 L 275.734375 202.933594 Z M 268.945312 202.933594 " fill-opacity="1" fill-rule="evenodd"/></g><path fill="#160036" d="M 275.726562 182.136719 L 275.726562 189.074219 L 282.515625 189.074219 L 282.515625 182.136719 Z M 275.726562 182.136719 " fill-opacity="1" fill-rule="evenodd"/><path fill="#160036" d="M 289.273438 182.136719 L 289.273438 189.074219 L 296.058594 189.074219 L 296.058594 182.136719 Z M 289.273438 182.136719 " fill-opacity="1" fill-rule="evenodd"/><path fill="#160036" d="M 302.816406 182.136719 L 302.816406 189.074219 L 309.601562 189.074219 L 309.601562 182.136719 Z M 302.816406 182.136719 " fill-opacity="1" fill-rule="evenodd"/><path fill="#160036" d="M 316.363281 182.136719 L 316.363281 189.074219 L 323.148438 189.074219 L 323.148438 182.136719 Z M 316.363281 182.136719 " fill-opacity="1" fill-rule="evenodd"/><path fill="#160036" d="M 329.90625 182.136719 L 329.90625 189.074219 L 336.691406 189.074219 L 336.691406 182.136719 Z M 329.90625 182.136719 " fill-opacity="1" fill-rule="evenodd"/><g clip-path="url(#118dec4c0e)"><path fill="#160036" d="M 262.160156 182.136719 L 262.160156 189.074219 L 268.945312 189.074219 L 268.945312 182.136719 Z M 262.160156 182.136719 " fill-opacity="1" fill-rule="evenodd"/></g><path fill="#160036" d="M 282.515625 189.074219 L 282.515625 196.015625 L 289.300781 196.015625 L 289.300781 189.074219 Z M 282.515625 189.074219 " fill-opacity="1" fill-rule="evenodd"/><path fill="#160036" d="M 296.058594 189.074219 L 296.058594 196.015625 L 302.847656 196.015625 L 302.847656 189.074219 Z M 296.058594 189.074219 " fill-opacity="1" fill-rule="evenodd"/><path fill="#160036" d="M 309.605469 189.074219 L 309.605469 196.015625 L 316.390625 196.015625 L 316.390625 189.074219 Z M 309.605469 189.074219 " fill-opacity="1" fill-rule="evenodd"/><path fill="#160036" d="M 323.148438 189.074219 L 323.148438 196.015625 L 329.9375 196.015625 L 329.9375 189.074219 Z M 323.148438 189.074219 " fill-opacity="1" fill-rule="evenodd"/><g clip-path="url(#3083766965)"><path fill="#160036" d="M 336.691406 189.074219 L 336.691406 196.015625 L 343.480469 196.015625 L 343.480469 189.074219 Z M 336.691406 189.074219 " fill-opacity="1" fill-rule="evenodd"/></g><g clip-path="url(#d16c461ba9)"><path fill="#160036" d="M 268.945312 189.074219 L 268.945312 196.015625 L 275.734375 196.015625 L 275.734375 189.074219 Z M 268.945312 189.074219 " fill-opacity="1" fill-rule="evenodd"/></g><g clip-path="url(#32cd226149)"><g clip-path="url(#8edc968aab)"><g clip-path="url(#3a72eedd55)"><path fill="#ffffff" d="M 286.679688 244.4375 L 285.53125 245.265625 L 285.300781 246.667969 L 286.128906 247.828125 L 287.523438 248.0625 L 288.671875 247.238281 L 288.902344 245.832031 L 288.078125 244.671875 Z M 286.679688 244.4375 " fill-opacity="1" fill-rule="nonzero"/></g></g></g><g clip-path="url(#2afb1aa6da)"><g clip-path="url(#fc28845cc3)"><g clip-path="url(#4af2ae9d98)"><path fill="#ffffff" d="M 306.863281 220.582031 C 306.617188 220.195312 306.058594 220.199219 305.820312 220.585938 L 303.089844 225.007812 C 302.703125 225.632812 301.882812 225.824219 301.261719 225.433594 L 299.609375 224.398438 C 298.984375 224.007812 298.792969 223.179688 299.179688 222.554688 L 301.910156 218.132812 C 302.148438 217.746094 301.902344 217.238281 301.453125 217.1875 C 300.078125 217.027344 298.6875 217.257812 297.433594 217.851562 C 293.9375 219.507812 292.308594 223.609375 293.679688 227.25 C 293.179688 228.054688 291.476562 230.8125 285.554688 240.40625 C 284.070312 240.796875 282.8125 241.726562 282 243.050781 C 280.253906 245.875 281.121094 249.613281 283.9375 251.378906 C 286.753906 253.144531 290.460938 252.277344 292.207031 249.453125 C 292.941406 248.261719 293.238281 246.859375 293.054688 245.476562 C 294.003906 243.945312 300.242188 233.835938 301.34375 232.054688 C 305.203125 231.683594 308.117188 228.390625 308.046875 224.511719 C 308.023438 223.113281 307.613281 221.753906 306.863281 220.582031 Z M 290.164062 245.78125 L 289.851562 247.695312 C 289.824219 247.859375 289.734375 248.003906 289.601562 248.097656 L 288.039062 249.226562 C 287.902344 249.324219 287.738281 249.359375 287.578125 249.332031 L 285.675781 249.011719 C 285.515625 248.984375 285.371094 248.894531 285.273438 248.761719 L 284.148438 247.183594 C 284.054688 247.046875 284.015625 246.882812 284.042969 246.71875 L 284.351562 244.804688 C 284.378906 244.644531 284.46875 244.496094 284.601562 244.402344 L 286.167969 243.273438 C 286.300781 243.179688 286.464844 243.140625 286.628906 243.167969 L 288.53125 243.488281 C 288.691406 243.515625 288.835938 243.605469 288.929688 243.738281 L 290.054688 245.320312 C 290.152344 245.453125 290.191406 245.621094 290.164062 245.78125 Z M 297.464844 233.382812 L 292.507812 241.410156 C 291.953125 242.3125 290.773438 242.589844 289.871094 242.023438 C 288.964844 241.453125 288.703125 240.261719 289.253906 239.367188 L 294.210938 231.34375 C 294.761719 230.445312 295.9375 230.160156 296.847656 230.726562 C 297.742188 231.292969 298.019531 232.480469 297.464844 233.382812 Z M 297.464844 233.382812 " fill-opacity="1" fill-rule="nonzero"/></g></g></g><g clip-path="url(#9e139953a2)"><g clip-path="url(#30ebe87d0e)"><g clip-path="url(#b171adf2c2)"><path fill="#ffffff" d="M 295.257812 232 L 290.304688 240.027344 C 290.105469 240.347656 290.207031 240.769531 290.523438 240.96875 C 290.84375 241.167969 291.261719 241.070312 291.457031 240.75 L 296.414062 232.726562 C 296.609375 232.40625 296.511719 231.980469 296.195312 231.78125 C 295.878906 231.582031 295.457031 231.679688 295.257812 232 Z M 295.257812 232 " fill-opacity="1" fill-rule="nonzero"/></g></g></g><g clip-path="url(#36c07e1734)"><g clip-path="url(#eb979ec682)"><g clip-path="url(#2c2775ccea)"><path fill="#ffffff" d="M 88.308594 244.417969 L 89.460938 245.242188 L 89.695312 246.648438 L 88.871094 247.808594 L 87.476562 248.046875 L 86.324219 247.222656 L 86.089844 245.820312 L 86.914062 244.65625 Z M 88.308594 244.417969 " fill-opacity="1" fill-rule="nonzero"/></g></g></g><g clip-path="url(#cc3c6b6137)"><g clip-path="url(#7db751b478)"><g clip-path="url(#84ad48b7b3)"><path fill="#ffffff" d="M 68.070312 220.609375 C 68.316406 220.226562 68.875 220.226562 69.117188 220.613281 L 71.855469 225.03125 C 72.246094 225.65625 73.0625 225.84375 73.683594 225.449219 L 75.335938 224.410156 C 75.957031 224.019531 76.148438 223.191406 75.761719 222.566406 L 73.019531 218.152344 C 72.777344 217.765625 73.023438 217.257812 73.472656 217.203125 C 74.847656 217.039062 76.238281 217.265625 77.496094 217.859375 C 80.996094 219.507812 82.632812 223.601562 81.269531 227.246094 C 81.773438 228.050781 83.480469 230.804688 89.425781 240.382812 C 90.910156 240.769531 92.171875 241.699219 92.988281 243.019531 C 94.742188 245.839844 93.878906 249.582031 91.070312 251.351562 C 88.257812 253.125 84.546875 252.269531 82.796875 249.449219 C 82.058594 248.261719 81.757812 246.855469 81.9375 245.472656 C 80.988281 243.941406 74.722656 233.847656 73.617188 232.070312 C 69.757812 231.710938 66.835938 228.425781 66.894531 224.542969 C 66.917969 223.148438 67.324219 221.785156 68.070312 220.609375 Z M 84.832031 245.773438 L 85.148438 247.683594 C 85.175781 247.847656 85.261719 247.992188 85.398438 248.085938 L 86.964844 249.210938 C 87.101562 249.308594 87.265625 249.34375 87.425781 249.316406 L 89.324219 248.992188 C 89.488281 248.964844 89.632812 248.875 89.726562 248.738281 L 90.847656 247.160156 C 90.945312 247.023438 90.980469 246.855469 90.953125 246.695312 L 90.640625 244.78125 C 90.613281 244.621094 90.523438 244.472656 90.386719 244.378906 L 88.820312 243.253906 C 88.6875 243.160156 88.523438 243.121094 88.359375 243.148438 L 86.460938 243.472656 C 86.296875 243.5 86.152344 243.59375 86.058594 243.726562 L 84.9375 245.308594 C 84.84375 245.441406 84.804688 245.609375 84.832031 245.773438 Z M 77.5 233.390625 L 82.476562 241.40625 C 83.035156 242.308594 84.214844 242.578125 85.113281 242.011719 C 86.019531 241.441406 86.28125 240.25 85.726562 239.355469 L 80.75 231.339844 C 80.195312 230.449219 79.019531 230.164062 78.113281 230.734375 C 77.214844 231.300781 76.941406 232.492188 77.5 233.390625 Z M 77.5 233.390625 " fill-opacity="1" fill-rule="nonzero"/></g></g></g><g clip-path="url(#6332272dcf)"><g clip-path="url(#2ef87861ae)"><g clip-path="url(#2d14cf79a7)"><path fill="#ffffff" d="M 79.703125 232.003906 L 84.675781 240.015625 C 84.875 240.335938 84.777344 240.761719 84.460938 240.960938 C 84.140625 241.160156 83.722656 241.0625 83.523438 240.742188 L 78.550781 232.730469 C 78.351562 232.410156 78.449219 231.988281 78.765625 231.789062 C 79.082031 231.585938 79.503906 231.683594 79.703125 232.003906 Z M 79.703125 232.003906 " fill-opacity="1" fill-rule="nonzero"/></g></g></g><path stroke-linecap="butt" transform="matrix(0.750132, 0, 0, 0.75, 39.568563, 165.256453)" fill="none" stroke-linejoin="miter" d="M 0.00233276 3.001813 L 88.997126 3.001813 " stroke="#160036" stroke-width="6" stroke-opacity="1" stroke-miterlimit="4"/><path stroke-linecap="butt" transform="matrix(0.750132, 0, 0, 0.75, 40.131019, 209.033746)" fill="none" stroke-linejoin="miter" d="M 0.00239136 3.00188 L 88.997185 3.00188 " stroke="#160036" stroke-width="6" stroke-opacity="1" stroke-miterlimit="4"/><path stroke-linecap="butt" transform="matrix(0.750132, 0, 0, 0.75, 268.342312, 165.256453)" fill="none" stroke-linejoin="miter" d="M 0.00191742 3.001813 L 88.996711 3.001813 " stroke="#160036" stroke-width="6" stroke-opacity="1" stroke-miterlimit="4"/><path stroke-linecap="butt" transform="matrix(0.750132, 0, 0, 0.75, 268.342312, 209.033746)" fill="none" stroke-linejoin="miter" d="M 0.00191742 3.00188 L 88.996711 3.00188 " stroke="#160036" stroke-width="6" stroke-opacity="1" stroke-miterlimit="4"/></svg>